<?xml version="1.0" encoding="UTF-8"?>
<svg id="Layer_1" data-name="Layer 1" xmlns="http://www.w3.org/2000/svg" viewBox="0 0 537.55 447.24">
  <defs>
    <style>
      .cls-1 {
        fill: #c8392b;
      }
    </style>
  </defs>
  <path class="cls-1" d="M232.35,444c-18.81-.97-37.08-6.78-55.21-11.53-16.11-4.35-32.88-7.15-47.52-15.56-6.6-3.61-12.8-7.93-19.5-11.36-8.9-4.69-18.61-7.89-27.38-12.83-5.66-3.19-10.67-7.36-15.85-11.48-9.52-6.64-14.67-16.91-19.51-27.11-8.49-14.85-14.67-26.94-16.32-44.2-3.32-12.98-5.46-25.98-4.61-39.42.71-11.82.38-23.94,1.5-35.8,1.21-8.22,3.61-16.36,5.5-24.48,1.58-6.13,4.91-11.49,8.44-16.67,4.98-7.73,9.79-15.77,14.48-23.74,6.68-11.07-6.72-20.35-16.9-18.3-8.36,1.09-16.27,4.32-23.77,8.05-3.29,1.55-6.86,3.33-9.82,3.4-4.98.6-7.02-5.05-5.27-9.28,3.08-8.07,11.39-15.58,18.27-21.11,7.83-5.03,17.99-4.49,26.8-2.68,6.17,1.53,12.17,4.46,17.39,7.9,4.47,2.76,7.13,6.73,11.67,6.47,12.83-4.66,15.92-44.88-9.66-41.3-8.73.18-19.22,4.43-27.46,2.32-6.03-1.71-6.76-10.46-2.28-14.43,3.1-3.03,7.6-4.29,11.76-5.29,9.45-2.28,19.33-4.85,28.82-1.72,11.51,3.53,21.03,11.29,27.85,21.01,6.07,8.48,13.19-.58,18.49-4.81,5.7-5.12,11.97-9.18,17.84-13.96,7.02-5.98,14.11-11.82,21.63-17.21,5.18-3.87,11.06-6.85,15.83-11.24,3.33-2.99,5.99-6.72,9.2-9.75,4.22-4.03,9.38-7.04,13.95-10.97,6.61-5.61,12.66-12.18,19.8-16.98,5.05-3.43,10.53-6.14,15.77-9.26,15.34-9.43,35-12.88,52.63-9.31,15.91,3.5,19.8,21.47,24.14,34.91,3.34,12.94,1.52,26.57.6,39.71-.58,4.92-.52,11.17,5.85,7.33,17.99-11.71,36.42-23.18,56.14-31.81,12.03-5.77,24.21-12.31,37.86-12.52,39.05-1.61,34.89,35.68,36.36,63.53,1.17,10.2.02,20.26-1.57,30.32-.59,6.99.01,13.69-1.01,20.56-1.73,11.56-4.43,23.79-2.56,35.4,1.25,6.56,6.2,11.74,9.25,18.03,7.12,17.52,16.29,4.47,31.04,6.16,9.15.23,18.67,1.63,26.11,7.04,6.09,4.45,13.22,10.07,15.84,16.69,2.99,6.79.65,19.2-8.45,18.11-7.83-1.75-9.61-15.06-18.09-19.2-10.94-7.99-31.52-4.25-31.85,11.09-.19,4.63.91,9.4,1.54,14.02,1.06,6.55,1.5,12.96,8.92,12.27,17.19-2.77,38.98-2.46,49.85,13.32,4.84,7.11,12.81,24.42,6.07,31.1-10.95,5.97-17.29-16.02-25.39-20.49-14.31-9.94-33.81-7.4-39.94,10.34-1.82,7.55-1.62,16.12-4.38,23.65-8.8,27.97-22.15,54.61-41.48,76.84-9.06,10.21-21.61,16.04-33.16,22.9-6.22,3.46-13.13,5.01-19.98,7.01-7.22,2.19-14.47,4.37-21.89,5.82-14.37,2.86-29.04,2.9-43.6,3.68-7.52.35-14.82-1.72-22.22-1.94-3.77-.03-7.57.5-11.35.43-6.54,0-13.09-1.74-19.81-1.85-6.4-.13-12.82.42-19.21.18M173.97,367.19c-.21-1.31-.64-2.51-.94-3.83-.62-2.54-.54-5.7-2.2-8.6-1.25-2.33-3.17-4.27-5.25-5.87-2.62-1.96-5.13-3.98-7.22-6.45-1.88-2.07-3.5-4.43-5.83-6.04-2.87-1.86-6.55-2.38-8.35-.67-1.64,2.08.6,4.89,1.76,6.8,2.57,3.77,5.21,7.73,8.86,10.34,2.39,1.83,5.35,3.25,7.24,5.58,2.59,3.08,1.85,7.96,4.6,10.95,2.74,2.63,8.28,2.03,7.34-2.11M237.21,278.53c9.94-9.15,7.98-26.39-.18-35.94-4.44-5.17-10.73-8.08-16.45-11.58-6-3.55-12.04-7.9-19.17-8.58-19.16-1.85-33.26,19.56-24.8,36.64,2.97,6.59,7.35,12.2,13.9,15.17,10.25,4.43,20.71,9.24,32.05,8.96,5.36.06,10.7-.98,14.51-4.53M314.18,207.84c4.52-7.76,1.18-16.48-8.83-12.48-4.09,1.61-4.54,6.5-2.75,10.08,2.06,4.96,8.02,8.43,11.47,2.59M182.27,172.8c3.94.55,8.55-1.38,8.8-5.86.19-3.11-1.05-6.75-3.88-8.35-3.58-2.05-9.8-.18-11.88,3.98-2.77,4.96,1.55,9.92,6.73,10.2l.24.03Z"/>
</svg>