<?xml version="1.0" encoding="UTF-8"?>
<svg id="Layer_1" data-name="Layer 1" xmlns="http://www.w3.org/2000/svg" viewBox="0 0 1607.95 980.08">
  <defs>
    <style>
      .cls-1 {
        fill: #ffcb58;
      }

      .cls-2 {
        fill: #ffcb58;
      }

      .cls-3 {
        fill: #ffcb58;
      }

      .cls-4 {
        fill: #ffcb58;
      }

      .cls-5 {
        fill: #ffcb58;
      }

      .cls-6 {
        fill: #ffcb58;
      }

      .cls-7 {
        fill: #ffcb58;
      }

      .cls-8 {
        fill: #ffcb58;
      }
    </style>
  </defs>
  <path class="cls-8" d="M751.48,968.82c-8.35.15-16.71.14-25.06.49-18.79.79-37.57,1.9-56.37,2.58-6.17.22-12.37-.62-18.57-.68-2.91-.02-5.84.65-8.75,1.06-.96.14-1.97.78-2.84.61-11.1-2.1-22.03.25-33.05.86-13.63.76-27.3.62-40.95,1.11-3.69.13-7.34,1.57-11.03,1.65-11.74.24-23.49-.08-35.23.22-8.35.21-16.69,1.03-25.03,1.67-6.84.53-13.67,1.79-20.5,1.69-20.44-.3-40.88-1.01-61.31-1.76-7.03-.26-14.05-.98-21.05-1.72-15.27-1.61-30.52-3.36-46.26-5.68-2.33-1.07-4.18-1.89-6.04-1.9-19.38-.09-38.76-.09-58.14-.01-1.93,0-3.86.61-5.79.94-.79-.23-1.58-.62-2.38-.65-17.99-.63-35.99-.94-53.96-1.91-9.57-.52-19.06-2.48-28.62-3.12-4.17-.28-8.44,1.22-12.68,1.73-1.81.22-3.67,0-5.51-.04-.49-.01-1.09-.41-1.44-.23-6.85,3.51-13.62-1.02-20.54-.26-3.71.41-7.69-1.76-11.95-3.4-2.07-1.12-3.74-2.02-5.42-2.03-20.41-.1-40.82-.11-61.23.02-1.77.01-3.53,1.2-5.3,1.84-1.36.66-2.73,1.9-4.09,1.88-9.31-.1-18.33,1.32-27.41,3.37-5.43,1.23-10.46,0-14.72-5.38-3.51-4.43-3.96-8.22-3.46-13.31,1.51-15.47,3.14-30.97,3.51-46.48.22-9.12-1.87-18.3-2.93-27.45-.73-6.3-1.73-12.57-2.19-18.88-.8-11.08-1.65-22.19-1.69-33.29-.01-3.97,1.23-7.92-.16-11.93-.77-2.22-1.22-4.56-1.7-6.39.23-1.93.49-3.48.6-5.04.33-4.72,1.04-9.47.81-14.17-.44-9.02-1.52-18-2.16-27.01-.54-7.51-1.78-15.13-.97-22.51.69-6.32.17-12.55-.64-18.49-.76-5.59.68-10.94-.38-16.63-1.34-7.27.57-15.09.69-22.69.06-3.81-.98-7.62-1.07-11.45-.37-16.23-.51-32.46-.86-48.69-.07-3.45-.94-6.89-.9-10.32.09-7.43.71-14.85.76-22.28.02-2.96-1.26-5.93-1.29-8.9-.18-17.49-.52-35-.05-52.47.22-8.07,2.34-16.08,3.19-24.15.24-2.26-1.65-4.74-1.41-6.99.92-8.68-.98-17.46.28-25.9.85-5.67.67-10.68-.02-16.27-.88-7.06.72-14.4.81-21.62.05-4.06-1.26-8.14-1.13-12.19.2-6.39,1.43-12.74,1.57-19.13.08-3.76-1.4-7.52-1.65-11.31-.3-4.59-.02-9.21,0-13.82.03-8.64-.1-17.28.15-25.91.15-5.21,1.11-10.4,1.29-15.61.12-3.49-.79-7-.71-10.49.12-5.1,1.15-10.2.99-15.27-.26-8.18-2.11-16.39-1.6-24.48.89-14.18-.68-28.28-.27-42.43.17-5.83-1.43-11.68-1.58-17.54-.28-10.83.25-21.69-.17-32.52-.36-9.13-1.61-18.21-2.44-27.32-.19-2.05-.3-4.1-.41-6.15-.25-4.84-.46-9.69-.71-14.53-.59-11.47-1.48-22.93-1.7-34.41-.14-7.22,1.06-14.45,1.05-21.68-.01-7.53-.89-15.05-1.14-22.58-.2-6.03,1.01-12.3-.28-18.05-1.62-7.21,3.53-13.02,2.5-20.01-.34-2.28,2.37-4.9,1.97-8.15-.11-.87,3.75-2.67,5.99-3.25,2.19-.57,4.64,0,6.97-.13,9.66-.6,19.31-1.26,28.97-1.92,12.14-.83,23.88-4.92,36.34-3.67,5.73.58,11.66-1.11,17.51-1.32,9.24-.33,18.66-1.37,27.7-.04,7.95,1.17,15.53,1.46,23.48.66,6.34-.63,12.85.74,19.29.75,2.97,0,5.93-1.15,8.91-1.75.46-.09,1.06-.27,1.41-.07,5.73,3.23,11.41-1.23,17.25-.05,3.95.8,8.21-.15,12.29.19,10.72.9,21.4,2.41,32.14,3.03,6.08.35,12.23-.8,18.35-.8,3.71,0,7.42,1.19,11.14,1.33,6.49.24,13.31,1.28,19.4-.29,5.41-1.4,10.01,1.47,14.99.38,3.14-.69,6.29-1.3,9.47-1.77,1.63-.24,3.33-.19,4.98-.06,7.54.57,15.07,1.15,22.59,1.84,3.1.28,6.18,1.13,9.27,1.17,2.47.03,4.95-1.04,7.44-1.15,4.86-.2,9.74-.06,14.61-.06,10.17,0,20.33-.12,30.5.07,2.84.05,5.67,1.03,8.5,1.57.49.09,1.03.3,1.47.17,8-2.37,15.96.81,24.01.15,8.11-.67,16.5.96,24.45-.35,18.24-3,36.5-.84,54.73-1.56,5.06-.2,10.15.19,15.2-.09,7.32-.41,14.61-1.29,21.93-1.74,4.3-.26,8.9-1.03,12.87.12,5.89,1.71,11.36-.96,17.02-.18,4.69.65,9.39,1.25,14.1,1.72,2.31.23,4.67.24,6.99.11,10.39-.57,20.76-1.36,31.15-1.81,6.04-.26,12.1.1,18.15-.08,2.21-.07,4.39-.91,6.59-1.37.79-.17,1.77-.61,2.38-.32,6.39,3.05,12.84,1.2,19.4.82,7.3-.42,14.69.53,22.03.95,5.35.3,10.46,2.48,16.14.19,2.52-1.02,6.85,2.27,9.26,1.18,4.81-2.18,8.79.69,13.12.44,3.6-.21,7.19-.77,10.78-.74,5.01.04,10.11,1.19,15.02.59,7.44-.91,14.74.53,22.12.19,7.65-.36,15.33-.08,22.99,0,4.71.05,9.24-1.44,14.2-.28,3.51.82,7.64-1.5,11.45-1.37,16.31.57,32.6,1.57,48.9,2.31,1.9.09,3.85-.74,5.75-.64,6.19.35,12.35,1.1,18.54,1.37,2.49.11,5.01-.87,7.53-.91,3.81-.07,7.62.3,11.43.38,3.14.06,6.28-.16,9.41-.01,2.26.11,4.5.94,6.75.91,8.47-.08,16.94-.54,25.41-.55,7.8,0,15.6.5,23.41.57,12.17.1,24.33-.02,36.5.08,1.7.01,3.39.84,5.11,1.16,1.26.24,2.89.83,3.78.3,4.44-2.6,8.72-.87,13.09-.06.83.15,1.78-.32,2.67-.52.95-.22,2.08-.94,2.81-.64,7.09,2.92,13.99-.66,21.04-.52,27.21.55,54.45.22,81.67.22,11.33,0,22.67.08,34-.05,2.19-.03,4.37-.9,6.56-1.37.63-.14,1.28-.38,1.91-.34,9.2.56,18.4,1.07,27.59,1.79,4.94.39,9.83,1.52,14.77,1.63,3.93.09,7.88-.92,11.83-1.3,1.05-.1,2.17.22,3.23.48.93.23,2.1,1.2,2.67.9,7.58-3.94,14.98,1.19,22.61.28,11.2-1.33,22.61-.86,33.81-2.21,5.95-.72,11.91-.42,17.86-1.48,9.8-1.74,19.77-2.54,29.65-3.86,3.32-.44,6.57-1.63,9.88-1.74,2.23-.07,4.51,1.74,6.74,1.67,4.06-.14,8.07-1.19,12.13-1.59,2.75-.27,5.56.12,8.31-.18,2.88-.32,5.69-1.54,8.55-1.65,6.92-.25,14.23-1.46,20.69.28,8.05,2.17,15.36-1.27,23.07-.47,9.8,1.02,19.67,1.48,29.52,1.88,6.26.25,12.56-.29,18.82-.03,10.43.43,20.85,1.68,31.27,1.72,9,.03,18-1.47,27.01-1.69,7.57-.19,15.45-1.82,22.5,2.78.79.51,1.84.65,2.79.88,4.19,1,6.38,3.44,6.59,7.95.43,9.34.69,18.72,1.86,27.97,1.22,9.62,4.1,19.05,5.01,28.68.76,7.99-.37,16.15-.51,24.23-.07,4.14-.19,8.33.38,12.41,1.82,13.09,1.47,26.39-.09,39.21-1.36,11.18-.4,22.17-1.19,33.22-.33,4.65.27,9.38-.13,14.02-.41,4.82-1.66,9.56-2.24,14.37-.24,2.03.45,4.16.47,6.25.06,8.94-.15,17.89.1,26.82.19,6.72,2.75,13.97.97,20.02-2.38,8.07,2.69,15.5-.64,23.62-2.02,4.93-.05,11.53.28,17.38.27,4.75,1.15,9.49,1.08,14.23-.08,5.25-1.27,10.47-1.35,15.72-.09,5.59.58,11.19.87,16.79.12,2.28.74,4.82,0,6.82-2.06,5.53,1.89,10.65.58,16.02-.46,1.88-.86,3.77-1.29,5.65-.18.79-.61,1.61-.53,2.37.8,8.08,1.69,16.16,2.52,24.24.08.76.08,1.65-.25,2.29-1.47,2.85-1.99,8.8-.9,11.85.16.46.4.96.36,1.42-.52,6.24-2.35,12.69-1.29,18.64,1.11,6.25-.42,12.11-.08,18.14.2,3.45,0,6.92-.07,10.38-.02.98-.56,2.13-.2,2.91,3.55,7.83.32,15.59.32,23.37,0,5.06-.69,10.09-.53,15.16.31,9.63.31,19.29,0,28.92-.23,7.31-1.35,14.59-1.65,21.9-.12,2.86,1.13,5.75,1.37,8.66.2,2.47,1.07,4.72-.6,7.58-1.47,2.51-.74,6.46-.53,9.74.26,4.12,1.43,8.22,1.36,12.31-.09,4.82-2.2,9.81-1.46,14.41,1.46,9.11-.91,17.98-.33,27.01.41,6.3-1.33,12.71-1.58,19.08-.11,2.73,1.73,5.55,1.62,8.28-.24,6-1.46,11.97-1.67,17.97-.13,3.73,2.66,7.19,1.38,11.27-.74,2.36-.88,4.93-1.11,7.42-.23,2.51-.52,5.06-.29,7.54.35,3.89,1.48,7.73,1.63,11.62.26,6.81.02,13.64.01,20.46,0,2.62.24,5.26.06,7.87-.5,7.5-1.34,14.98-1.66,22.49-.13,3.07.66,6.19,1.13,9.27.74,4.84,1.94,9.64,2.21,14.5.17,3.01-1.52,6.1-1.49,9.15.04,4,1.03,7.99,1.47,12,.23,2.05.1,4.14.23,6.21.54,8.8,1.45,17.59,1.55,26.38.07,5.95-1.32,11.91-1.41,17.88-.06,4.39,1.19,8.79,1.39,13.2.28,6.25-.18,12.53.22,18.77.56,8.73-.76,17.39.66,26.26,1.45,8.99,1.83,18.69-2.7,27.32-2.95,5.63-8.11,8.39-14.22,10.48-6.32,2.16-12.52,1.96-18.72,1.47-10.36-.83-20.63.63-30.97.3-7.7-.25-15.44,1.26-23.17,1.61-3.07.14-6.18-.98-9.29-1.06-2.32-.06-4.66.88-7,.96-5.33.18-10.67,0-16,.15-18.88.56-37.76,1.22-56.64,1.76-1.32.04-2.66-.62-4-.87-1.74-.33-4.09-1.44-5.15-.71-6.75,4.65-13.95.58-20.89,1.39-7.05.83-14.34.47-21.43-.29-2.55-.28-4.67.1-7.04.26-3.63.24-7.34-1.34-11.04-1.49-17.7-.73-35.41-1.28-53.11-1.79-5.92-.17-12.02.82-17.74-.29-7.2-1.39-14.08,1.17-21.09.22-3.36-.45-6.69-1.78-10.01-1.71-5.21.11-10.4,1.16-15.61,1.61-2.83.25-5.69.01-8.53.15-11.2.55-22.4,1.37-33.61,1.69-10.24.29-20.5-.01-30.74.1-2.84.03-5.67.61-8.74.25-1.99-4.39-4.17-1.07-6.14-1.04-5.66.1-11.32.27-16.98.32-8.44.09-16.88.13-25.33.14-8.96,0-17.92-.29-26.86-.04-9.69.27-19.38,1.55-29.06,1.46-15.27-.14-30.56-.64-45.77-1.79-11.74-.89-23.5,3.13-35.15-.55-.29-.09-.66.05-.99.06-16.88.54-33.76,1.21-50.64,1.59-19.25.44-38.51.8-57.77.85-14.09.03-28.18-.59-42.28-.77-4.3-.05-8.62.74-12.9.56-5.27-.22-10.5-1.14-15.76-1.57-3.15-.26-6.33-.08-9.48-.26-9.07-.53-18.14-1.34-27.22-1.55-1.55-.04-3.15,2.36-4.73,3.64M277.14,35.55c-.87.45-2.08,1.51-2.56,1.25-4.92-2.71-9.47-1.07-14.55-.11-6.57,1.24-13.55.4-20.34.2-1.71-.05-3.65-1.93-5.03-1.5-5.56,1.73-10.87,1.31-16.38-.1-1.77-.45-3.89.39-5.83.73-1.26.22-2.51.94-3.74.86-8.2-.48-16.39-1.6-24.58-1.57-9.03.03-18.05,1.02-27.07,1.7-4.86.36-9.44-1.76-14.61-.24-5.61,1.65-11.78,2.02-17.69,1.94-11.53-.16-23.06-1.04-34.59-1.56-1.27-.06-2.56.27-3.83.5-2.02.37-4.19,1.51-6.01,1.08-3.14-.74-6.04-.3-9.09-.27-8.76.1-17.8,2.41-26.42-1.28-.5-.21-1.35-.02-1.87.28-2.36,1.38-3.86,2.74-4.34,6.16-1.58,11.23,4.12,22.33.26,33.5-.18.51.34,1.25.48,1.89.45,2.03,1.15,4.06,1.24,6.11.16,4.06-.28,8.15,0,12.19.43,6.49,2.53,13.17,1.48,19.36-.82,4.86.07,9.07.28,13.62,1,22.31-1.56,44.73,1.93,66.99.25,1.57-1.23,3.55-.74,4.93,2.18,6.13,2.07,12.55,1.88,18.75-.28,9.11-.46,18.06.48,27.21,1.51,14.79,1.7,29.73,2.02,44.62.26,12.4.08,24.83-.23,37.23-.27,10.52-1.24,21.02-1.47,31.54-.27,12.73-.23,25.47-.06,38.2.17,12.26-1.04,24.49-.14,36.77.5,6.76.16,13.59-.03,20.39-.26,9.48-1.33,18.98-.79,28.4.18,3.09-.14,5.73-.45,8.68-.54,5.15.2,10.42.29,15.64.05,2.86-.11,5.71-.19,8.57-.08,2.88-.02,5.77-.33,8.63-.28,2.56-1.47,5.07-1.42,7.59.12,5.45,1.04,10.88,1.17,16.33.47,19.19.73,38.39,1.13,57.59.06,2.71,1.55,5.94.53,8.02-2.04,4.16.1,8-.33,11.99-.62,5.71.35,11.58.16,17.37-.18,5.47,1.67,10.88-1.07,16.56-1.29,2.67,1.2,6.97,1.37,10.56.75,15.99,1.3,31.99,1.88,47.99.09,2.61-.2,5.24-.07,7.85.57,10.72,1.31,21.43,1.79,32.16.1,2.18-1.18,4.44-1.01,6.6.81,10.08,2.37,20.11,2.78,30.2.34,8.58-1.17,17.25-.68,25.81.59,10.18,2.2,20.27-1.01,30.29-.19.58.08,1.31.15,1.97.55,5.73,1.21,11.44,1.62,17.18.28,3.98.14,7.98.32,11.96.32,7.01,1.07,14.02,1.04,21.03-.04,7.29-.84,14.58-1.19,21.87-.03.68.72,1.4.67,1.3,3.25.48,5.84,1.41,8.27,1.09,4.85-.64,9.39-4.41,14.59-1.06.56.36,1.66.12,2.43-.12,8.04-2.49,16.13-4.5,24.65-2.84,2.28.45,4.59,1.16,6.88,1.13,12.8-.21,24.76,3.71,36.68,7.51,5.41,1.72,10.4,4.62,16.41,3.54,3.53-.63,7.11-1.26,10.68-1.3,3.52-.04,7.05.97,10.57.96,3.7-.01,7.44-1.28,11.07-.95,6.92.63,13.74,2.22,20.65,3,7.82.88,15.68,1.5,23.54,1.85,6.6.3,13.21.04,19.82.04.83,0,1.67-.02,2.49.09,9.24,1.18,18.44,2.9,27.71,3.46,16.26.98,32.56,1.29,48.84,1.77,5.83.17,11.67-.16,17.5.06,13.56.52,27.11,1.25,40.67,1.87.99.05,2.01.03,2.99-.1,4.19-.57,8.38-1.73,12.54-1.63,3.74.09,7.02-1.87,11.31-.55,4.24,1.3,9.54-1.41,14.32-1.18,6.68.32,13.27-1.78,19.97-.25,2.07.47,4.4-.31,6.57-.08,4.85.5,9.67,1.88,14.49,1.81,8.17-.11,16.33-1.28,24.5-1.58,8.16-.3,16.33-.07,24.49-.07,8,0,16.01.31,23.99-.09,7.81-.39,15.52,1.1,23.4.32,5.91-.59,12.02,1.24,18.05,1.35,3.85.07,7.8-1.81,11.55-1.4,5.11.55,10.05.12,15.11-.05,12.15-.4,24.33-.02,36.49-.22,3.16-.05,6.3-1.12,9.46-1.69.53-.1,1.12-.14,1.64-.02,2.63.56,5.26,1.74,7.86,1.67,4.2-.13,8.35-1.24,12.56-1.59,2.04-.17,4.16.76,6.21.63,12.37-.76,24.71-1.97,37.09-2.37,3.93-.12,7.82.54,11.91.03,6.23-.77,12.63-.21,18.96-.19,2.26,0,4.54.27,6.79.1,5.36-.4,10.84-1.99,15.89-2.08,11.1-.2,22.29.41,33.43.03,7.21-.24,14.24,1.92,21.57.65,3.78-.66,7.91,1.04,11.9,1.12,4.98.1,10.17-1.36,14.9-.39,10.13,2.08,20.19-1.71,30.23.46,1.4.3,3.06-.9,4.63-1.08,2.58-.3,5.22-.6,7.79-.39,2.7.21,5.37,1.58,8.01,1.46,6.85-.31,13.67-1.27,20.52-1.76,6.34-.45,12.7-.6,19.05-.95,2.18-.12,4.36-.82,6.5-.66,5.14.37,10.26,1.05,15.38,1.66,10.2,1.22,20.38-2.21,30.61-.1,1.42.29,3.09-.88,4.67-.97,2.85-.16,5.71,0,8.56-.02,2.61-.02,5.23-.05,7.84-.17.73-.03,1.45-.58,2.18-.58,9.09-.03,18.17,0,27.26,0,1,0,2,.01,2.99-.08,5.84-.55,11.69-1.66,17.52-1.54,5.52.12,10.87.62,16.55.17,18.46-1.46,37.05-1.48,55.59-1.88,11.66-.25,23.32-.21,34.98-.25,11.5-.04,23.01.26,34.49-.09,11.34-.34,22.64.79,34.01.25,7.14-.34,14.36,1.3,21.56,1.56,8.15.3,16.35.39,24.49-.04,6.41-.33,12.76,3.31,19.19.13.68-.34,1.82.2,2.74.38,2.21.45,4.74,1.85,6.54,1.21,4.55-1.62,8.55-.95,13.18-.12,8.52,1.54,17.33,1.89,26.03,2.03,17.02.28,34.05.11,51.08.06,3.5,0,6.99-.3,10.49-.42,2.69-.09,5.39-.19,8.08-.12,2.3.06,4.62.69,6.88.5,5.3-.45,10.56-1.73,15.85-1.79,18.26-.22,36.53,0,54.79-.13,2.85-.02,5.74-1.71,8.53-1.51,5.37.38,10.66.91,16.03-.03,1.45-.25,3.1.91,4.62.81,7.8-.51,15.59-1.21,23.5-1.85.62-5.34,1.65-10.73,1.76-16.14.12-5.73-.79-11.47-.96-17.22-.11-3.56.39-7.13.48-10.7.08-3.18-.06-6.37-.03-9.55.06-5.85.02-11.7.33-17.54.23-4.46.95-8.9,1.4-13.36.12-1.17.16-2.36.04-3.53-.25-2.57-1.01-5.16-.85-7.7.28-4.37,1.44-8.7,1.64-13.07.47-10.16.77-20.33.77-30.49,0-5.76-.77-11.52-1.13-17.29-.31-4.87-1.4-9.89-.6-14.58,1.32-7.82,2.09-15.4-.34-23.11-.43-1.36.37-3.07.46-4.63.24-3.96.63-7.93.55-11.89-.19-8.26-.78-16.51-.94-24.77-.07-4.01.82-8.05.64-12.04-.17-3.77-1.57-7.48-1.71-11.25-.19-5.08.43-10.19.47-15.29.02-2.8-.8-5.63-.63-8.41.72-11.54,1.78-23.06,2.47-34.61.21-3.45-.42-6.95-.62-10.43-.08-1.41-.02-2.83,0-4.24,0-1.06.18-2.14.04-3.19-.33-2.43-1.03-4.83-1.17-7.26-.56-9.5,2.09-19.01-.01-28.52-1.28-5.76,2.97-11.55-.03-17.34-.13-.24.6-.83.64-1.28.13-1.63.26-3.27.17-4.9-.08-1.47-.74-2.95-.62-4.38.44-5.02,1.5-10,1.58-15.02.09-6.26-.73-12.52-.84-18.79-.12-6.94.23-13.9.15-20.84-.08-6.33-.77-12.66-.64-18.97.15-7.01,1.09-14.01,1.38-21.02.24-5.85.05-11.73.05-17.59,0-13.83-.02-27.66.03-41.49,0-1.79.56-3.57.6-5.36.09-4.77.09-9.54.01-14.31-.03-1.61-.58-3.21-.62-4.82-.14-6.72,1.14-13.33.25-20.2-.71-5.49,1.24-11.27,1.49-16.94.52-11.46.73-22.93.96-34.4.04-1.75-.82-3.53-.69-5.25.38-4.92,1.17-9.8,1.56-14.72.11-1.44-.82-2.93-.87-4.41-.14-5-.05-10.01-.14-15.01-.06-3.44-.29-6.88-.4-10.33-.17-5.76-.32-11.51-.44-17.27-.05-2.39,0-4.79,0-7.18-.52-2.95-.56-5.8-.75-8.63-.72-10.92-1.9-21.83-2.11-32.76-.18-9.81.77-19.64,1.03-29.46.05-1.85-.84-3.72-1.24-5.6-.16-.75-.58-1.88-.24-2.25,3.39-3.69.34-7.43.15-11.09-.32-6.36-1.23-12.7-1.38-19.06-.12-4.83.88-9.69.78-14.53-.09-4.02-1.24-8-1.59-12.03-.72-8.35-1.2-16.73-1.83-25.09-.58-7.68-1.32-15.34-1.77-23.02-.13-2.17-.56-3.19-3.58-2.81-.96-.2-1.93-.58-2.89-.58-21.69-.04-43.38-.07-65.06.03-1.46,0-2.92,1.11-4.71,2.45-1.51.42-3.01,1.18-4.53,1.2-8.74.12-17.49.39-26.22-.01-15.58-.71-31.15,1.62-46.72.09-.82-.08-1.67-.05-2.49.05-5.15.62-10.28,1.46-15.44,1.88-8.51.69-17.05,1.11-25.57,1.67-9.18.59-18.35,1.2-27.53,1.82-1.15.08-2.34.08-3.42.41-6.64,2.02-13.37,2.04-20.24,1.58-5.8-.39-11.93-1.15-17.39.26-5.54,1.43-10.49,1.54-15.93.4-3.41-.71-7.08-.42-10.62-.23-3.37.18-6.96,1.78-10.02,1.01-4.08-1.03-7.58-.4-11.58-.02-14.04,1.32-28.18,1.79-42.29,1.92-5.18.05-10.05,1.34-15.6.72-14.83-1.67-30.01-1.72-44.92-.65-8.64.62-17.04-1.07-25.78.05-11.46,1.48-23.28.15-34.94.03-.83,0-1.66.04-2.49.09-6.03.42-12.06,1.12-18.09,1.18-4.89.05-9.8-2.06-14.69.46-.77.4-2.15-.51-3.27-.65-2.71-.33-5.46-.89-8.16-.76-3.02.15-6.15,1.79-8.97,1.3-7.44-1.3-14.74,3.62-22.11.17-.26-.12-.66.03-.99.05-7.73.41-15.46,1.07-23.19,1.15-4.72.05-9.43-.94-14.16-1.17-10.37-.51-20.74-1.1-31.12-1.15-7.69-.04-15.38.8-23.07,1.09-3.31.12-6.63-.06-9.94-.26-7.29-.43-14.58-1.03-21.87-1.4-1.75-.09-3.54.35-5.29.65-1.4.24-2.8,1.02-4.15.93-6.5-.44-12.98-1.4-19.49-1.57-4.54-.12-9.1,1.14-13.65,1.09-6.41-.07-12.8-.91-19.21-1.12-2.19-.07-4.4,1.16-6.6,1.19-7.79.11-15.59,0-23.38-.11-2.29-.03-4.58-.2-6.85-.5-5.46-.74-11.92-3.82-16.12-1.9-7.11,3.24-13-1.26-19.72-.16-9.11,1.49-18.76.2-28.12-.56-6.36-.52-13,2.88-19.17-1.48-1.05-.75-3.22-.06-4.85.18-3.05.44-6.32,2.02-9.07,1.35-5.54-1.36-10.77-2.79-16.23.05-.77.4-1.97.08-2.96-.06-3.85-.54-7.67-1.5-11.53-1.64-7.39-.27-14.79-.21-22.19-.06-6.44.13-12.8-.73-19.33-.51-10.44.36-21.29,3.33-31.64-1.21-.48-.21-1.23.21-1.86.35-2.01.45-4.02,1.27-6.04,1.29-12.49.12-24.99-.14-37.48.15-5.84.13-11.65,1.23-17.48,1.8-1.63.16-3.3.16-4.93-.04-4.44-.54-8.85-1.65-13.29-1.78-9.99-.27-19.99-.17-29.99-.03-4.05.06-7.67,1.45-12.23.71-11.92-1.93-24.16-2.13-36.29-2.51-11.81-.36-23.64-.17-35.45-.03-5.7.06-11.51-.02-17.05,1.07-3.15.62-5.4.77-7.69-2.06-1.3-.42-2.61-1.21-3.91-1.21-26.6-.07-53.19-.09-79.79.03-1.76,0-3.51,1.24-5.64,2.5Z"/>
  <path class="cls-1" d="M751.92,968.8c1.15-1.25,2.75-3.65,4.3-3.61,9.08.21,18.15,1.02,27.22,1.55,3.16.18,6.34,0,9.48.26,5.26.44,10.5,1.35,15.76,1.57,4.29.18,8.6-.61,12.9-.56,14.09.17,28.19.8,42.28.77,19.26-.04,38.52-.41,57.77-.85,16.88-.38,33.76-1.05,50.64-1.59.33-.01.7-.15.99-.06,11.65,3.68,23.41-.34,35.15.55,15.22,1.15,30.51,1.65,45.77,1.79,9.68.09,19.36-1.19,29.06-1.46,8.95-.25,17.91.04,26.86.04,8.44,0,16.88-.05,25.33-.14,5.66-.06,11.32-.23,16.98-.32,1.97-.03,4.15-3.36,5.96.66-4.63.84-9.31,1.34-13.99,1.91-4.5.54-8.97,1.35-13.48,1.68-3.03.22-6.11-.12-9.16-.37-4.48-.37-8.94-.97-13.42-1.27-1.96-.13-3.94.21-6.65.54-1.49.48-2.25.76-3.01,1.04-3.4-.45-6.8-1.2-10.21-1.27-2.79-.05-5.59.79-8.4,1.09-2.28.24-4.59.33-6.89.35-9.82.05-19.64.28-29.45-.02-8.09-.25-16.16-1.38-24.25-1.69-7.71-.3-15.44-.2-23.16.01-2.65.07-5.8,2.24-7.81,1.36-5.05-2.21-9.68,1.85-14.38.08-3.46-1.31-6.7-2.42-10.19.12-.67.49-2.38-.49-3.63-.75-1.58-.32-3.69-1.4-4.68-.76-4.72,3.03-9.27-.94-14,.16-4.71,1.1-9.69,1.46-14.55,1.47-39.47.11-78.95.3-118.42-.09-10.07-.1-20.09-2.78-30.18-3.25-8.68-.4-17.42.65-26.56,1.09M1037.98,968.46s.03.06,0,0Z"/>
  <path class="cls-5" d="M66.96,961.87c1.3-.63,3.06-1.82,4.83-1.83,20.41-.13,40.82-.12,61.23-.02,1.68,0,3.35.91,5.24,1.7-23.46.25-47.15.2-71.3.15Z"/>
  <path class="cls-5" d="M275.53,970c1.94-.4,3.87-1,5.8-1.01,19.38-.07,38.76-.08,58.14.01,1.86,0,3.71.83,5.8,1.58-22.49.31-45.21.32-68.48.07-.71-.43-.9-.53-1.13-.57,0,0-.14-.02-.13-.09Z"/>
  <path class="cls-8" d="M1098.99,970.97c.43-.33,1.19-.61,2.26-.9-.44.31-1.19.63-2.26.9Z"/>
  <path class="cls-8" d="M275.69,970.28c.19-.15.38-.05.63.25.09.14-.3.2-.3.2,0,0-.3-.26-.33-.45Z"/>
  <path class="cls-5" d="M296.84,34.82c-6.13.05-12.26.1-18.85.14,1.29-.67,3.04-1.9,4.79-1.91,26.6-.12,53.19-.1,79.79-.03,1.31,0,2.61.79,3.96,1.49-17.02.36-34.09.43-51.82.43-.66-.08-1.04-.05-1.04-.05,0,0-.08.04-.21-.1-.43-.26-.7-.22-.94-.02-4.81.04-9.62.07-14.99.05-.56-.06-.68,0-.68,0Z"/>
  <path class="cls-5" d="M1562.17,26.8c-.86.48-2.09.99-3.31,1-22.81.02-45.63-.02-68.92-.04.99-.59,2.45-1.7,3.91-1.71,21.69-.1,43.38-.07,65.06-.03.97,0,1.93.38,3.26.78Z"/>
  <path class="cls-3" d="M1391.37,528.94c13.78,26.11,29.58,51.8,31.19,82.03,1.11,11.18,4.01,23.16-1.25,33.72-5.85,10.54-14.4,16.77-25.66,20.39-8.15,2.9-16.33,6.23-24.85,7.88-10.64,2.04-21.58,2.28-32.34,3.38-18.83.2-37.46-3.78-56.01-6.69-9.66-1.68-19.47-2.15-29.2-3.28-11.99-1.7-23.72-5.01-35.75-6.61-10.36-1.05-19.98-4.71-29.74-8.03-5.96-1.63-12.02-3.01-17.82-5.12-16.6-6.53-32.5-15.18-49.1-21.83-8.14-3.49-16.95-4.83-25.2-7.99-10.22-3.97-20.03-9.13-30.64-12-27.55-8.34-56.39-11.27-83.83-19.86-6.89-2.53-14.17-2.55-21.43-2.77-14.27-.69-28.54-1.22-42.81-1.44-19.94.78-39.91,2.06-59.83,3.6-10.96.44-21.75,2.34-31.7,7.12-20.44,7.31-39.65,17.09-57.07,30.08-15.63,7.79-27.71,20.39-41.04,31.36-5.12,4.3-11.06,7.38-16.71,10.89-7.94,5.46-15.36,12.05-23.54,17.34-14.89,12.51-29.96,24.86-45.03,37.25-35.94,28.29-64.49,65.26-101.49,92.11-16.19,8.76-33.98,14.86-51.98,18.64-10.02,1-20.6,2.52-30.68,1.07-13.26-3.39-25.85-10.72-35.78-20.1-9.34-12.6-17.23-27.04-20.91-42.31-2.35-14.11-5.26-28.44-3.37-42.71.4-8.19-1.15-16.38-1.14-24.54.03-3.47-1.34-8.71-5.13-8.65-3.18-.22-7.91,2.92-11.55,4.37-4.9,2.09-10.13,3.16-15.15,5.11-25.14,10.35-49.47,22.49-75.27,31.42-16.83,5.44-34.65,10.28-52.36,8.18-20.68-3.42-40.9-23.41-38.15-45.71-1.18-20.08,5.87-38.78,16.94-55.23,12.17-15.68,22.98-32.28,34.7-48.21,9.32-14.02,18.83-28.87,32.3-39.3,11.46-7.2,1.08-12.29-5.58-17.87-7.34-5.73-14.5-11.8-20.66-18.69-7.42-7.58-12.57-17.03-17.48-26.39-3.46-5.95-8.77-10.53-12.16-16.47-14.86-27.58-14.57-61.04-11.03-91.4,2.85-15.58,8.02-30.79,13.61-45.62,2.25-7.89,17.35-26.05,13.61-32.29-3.05-4.6-10.87-5.18-16.25-6.03-5.63-.78-11.44-.69-16.74,1.55-9.91,2.94-33.19,26.45-36.46,9.66.99-12.92,13.21-19.69,24.12-24.3,8.78-4.37,18.37-8.52,28.2-7.84,10.69.42,20.84,2.33,29.66,8.19,9.73,5.49,16.66-13.5,23.31-18.99,4.97-4.67,5.25-9.26-1.27-12.38-6.86-3.85-14.3-6.12-21.99-7.02-15.82-1.14-32.06,2.04-45.92,9.91-5.25,3.56-14.67,4.17-14.1-4.72.72-14.79,33.58-25.58,46.11-25.5,16.89-2.01,32.47,4.59,46.95,12.77,11.32,7.48,17.91-4.83,25.58-11.24,14.51-14.42,29.92-28.03,45.12-41.72,29.04-30.03,64.38-53.99,101.58-72.74,20.14-9.52,43.46-17.04,62.4-.86,15.81,19.2,11.91,46.63,12.19,69.88-.41,7.8,1.51,8.62,7.3,3.69,10.19-6.64,20.09-14.8,30.17-21.7,6.95-4.31,14.8-6.72,22.19-10.17,13.49-6.76,27.23-12.96,42.05-16.2,21.55-5.19,46.36,8.6,55.31,28.5,6.82,13.38,3.1,38.86,1.98,54.21-.68,5.25-2.01,10.37-3.45,15.45-3.66,11.94-5.16,24.43-8.18,36.51-3.39,11.63-10.6,22.82-7.65,35.25,2.64,16.68,6.64,33.13,10.97,49.41,1.01,5.74.26,11.79.84,17.73,1.27,11.64,3.13,23.24,1.84,35-.69,8.3-1.76,16.69-3.91,24.79-.44,3.53-7.7,15.51-.96,15.32,5.27-2.02,6.66-9.24,8.52-14.07,2.8-8.58,5.88-17.16,6.62-26.14.7-12.26,1.87-25.94,7.24-36.9,3.95-6.7,12.46-5.99,18.62-2.31,7.91,3.95,15.75,7.61,22.55,13.58,3.39,2.97,4.92,6.45,6.32,10.23.58,2.52,3.85,7.36,6.12,3.82,2.55-7.06-4.29-15-8.99-19.54-6.83-9.8-19.8-16.2-31.64-15.67-5.98-.11-14.29,5.73-18.59-.5-3.36-9.12-5.19-22.16-2.09-31.84,1.44-4.86,3.54-7.51,9.5-6.97,12.7-1.71,25.19,3.28,37.47,5.24,6.98.42,6.06,8.54,10.86,12.38,4.59,4.23,9.44,2.67,6.4-3.68-7.73-18.15-26.41-24.61-45.13-23.71-9.27-.94-25.06,14.3-25.54-2.47.32-11.34-6.33-33.71,3.71-40.84,4.64-3.28,10.5-4.51,15.83-6.36,10.61-3.33,20.42-8.8,30.87-12.38,10-3.14,20.27-5.12,30.2-8.59,11.96-3.63,24.08-7.05,36.66-7.3,14.26-.75,28.05-5.04,42.29-5.77,25.22-2.47,50.47,2.62,75.67-.07,10.28-.92,20.4.26,30.61-.59,16.58,1.47,33.35,2.65,50,2.85,23.26,1.31,46.61,3.49,69.84,5.74,35.1,5.8,69.97,12.94,104.26,22.66,13.27,3.94,26.42,8.22,39.44,12.99,7.47,3.15,14.32,7.84,21.93,10.82,9.31,3.4,17.7,8.87,26.47,13.31,25.31,12.29,50.7,24.97,74.26,40.45,10.43,8.08,18.91,18.31,29.9,25.74,12.15,12.01,26.54,21.71,37.83,34.63,10.5,10.9,18.31,23.86,27.18,36.06,6.28,7.43,9.88,16.54,14.19,25.15,3.83,7.67,8.58,14.96,12.09,22.76,4.57,10.69,7.63,21.94,11.96,32.74,9.21,18.9,1.14,41.98-16.23,53.14-7.73,3.39-25.64,4.43-32.21-3.04-5.83-4.97-10.81-9.67-15.19-16.2-4.86-5.53-9.76-11.21-14.83-16.68-4.09-3.85-7.34-6.8-9.71-11.87-1.18-1.84-4.33-7.51-6.75-5.9-.2,4.42,6.2,9.43,8.48,13.7M443.53,370.87c-1.88-1.42-3.41-3.22-4.77-5.15-1.93-2.96-3.41-7.17-7.61-7.31-1.92-.24-4.01.09-5.86-.35-2.28-.62-1.46-3.28-3.73-5.59-.76-.76-1.85-1.45-2.87-1.99-5.94-3.11-12.45-5.24-18.94-3.38-6.46,1.66-11.77,8.07-15.18,13.96-8.6,15.18-.04,33.88,12.49,44.26,5.17,4.79,11.93,6.64,18.9,6.71,1.83.13,3.66.36,5.48.52,3.54.4,6.44-.74,8.81-.64,3.29,0,6.66,2.21,9.97.67,4.11-2.12,6.12-6.52,9.15-10.03,1.64-2.05,3.03-4.28,3.52-6.9.89-4.03.06-8.07-.9-11.8-1.13-5.11-4.03-10.01-8.34-12.89M355.68,471.38c-2.31-1.98-5.7-3.27-8.71-2.52-3.92,1.38-3.21,7.44-2.09,10.65,1.67,4.16,4.85,6.72,7.05,10.76,2.45,4.47,5.4,8.39,8.73,12.37,1.27,1.43,2.77,2.84,4.44,3.71,4.99,2.83,9.32-1.61,8.45-6.87-1.12-7.48-6.58-13.57-11.37-19.08-2.42-2.9-3.55-6.57-6.36-8.91M532.99,315.99c-5.82-2.32-10.96,4.94-9.42,10.3,1.62,5.48,6.24,7.98,11.37,4.5,3.94-2.05,7.3-7.34,4.41-11.45-1.42-1.68-4.07-2.53-6.17-3.29M381.7,274.31c-.48,2.66,1.6,4.23,3.48,5.91,1.4,1.23,2.61,2.63,3.7,4.08,3.91,5.95,9.52,4.31,10.66-2.52.59-3.09,1.83-7.47.37-9.79-1.88-2.96-6.01-2.88-9.13-3.27-4.08-.51-8.15,1.37-9.05,5.37M1373.83,500.53c-1.53-1.49-2.55-3.45-4.07-4.89-.35-.27-.72-.58-1.13-.46-.72.16.2,2.57.93,3.65,1.03,1.81,2.04,3.68,3.08,5.45.43.68,1.02,1.4,1.82,1.54.79.11,1.5-.41,1.72-1.18.4-1.64-1.1-2.67-2.19-3.94l-.16-.17Z"/>
  <path class="cls-8" d="M1180.44,702.81c1.97-2.89,3.72-5.49,5.89-8.71-2.89-.41-5.24-.62-7.54-1.09-4.23-.86-8.39-2.13-12.65-2.77-6.47-.97-5.89-5.51-5.54-10.06.15-1.99.33-3.97.56-6.8-.12.06.85-.07,1.15-.59,4.57-7.92,12.23-4.05,18.62-4.79,1.32-.15,3.07.96,4.18,1.97,4.1,3.71,9.06,2.78,13.88,3.05,12.72.73,24.88,3.81,36.42,9.25.44.21.87.52,1.19.89,4.38,5.05,1.18,10.36-.54,14.87-.9,2.36-5.54,3.72-8.75,4.61-2.18.6-4.83-.29-7.23-.73-2.09-.39-4.1-1.28-6.19-1.62-3.05-.5-6.11-1.3-8.07,2.6-4.2,8.37-9.62,16.24-12.84,24.94-2.32,6.28-6.09,10.93-9.76,16.17-5.79,8.28-9.75,17.82-14.7,26.71-2.15,3.86-4.87,7.4-7.24,11.14-.69,1.09-1.05,2.39-1.63,3.56-3.48,6.98-6.97,13.95-10.64,21.27.14.08.75.75,1.43.82,14.09,1.51,18.96,14.65,12.61,24.07-2.21,3.28-5.77,5.93-10.88,5.87-10.49-.12-20.98.92-31.47.89-9.91-.02-19.81-.83-29.72-1.21-3.36-.13-6.74-.02-11.14-.02,0-5.62-.13-10.68.04-15.74.14-4.24,3.2-4.62,6.65-4.9,4.98-.41,9.92-1.37,14.87-2.16.37-.06.66-.65.68-.67-3.82-7.16-7.43-14.15-11.25-21.04-7.34-13.24-15.52-26.08-21.91-39.76-3.78-8.08-9.86-14.21-14.25-21.63-1.02-1.72-2.32-3.34-3.04-5.17-2.71-6.92-5.19-13.92-7.84-20.86-1.38-3.61-3-7.13-4.38-10.73-1.67-4.35-3.05-8.81-4.84-13.11-1.66-4-3.68-7.85-5.54-11.76-.46.11-.91.21-1.37.32-.07,1.36-.16,2.72-.21,4.09-.6,15.19-1.53,30.37-1.67,45.57-.08,8.83,1.32,17.67,1.62,26.52.31,8.92-.22,17.87.19,26.79.37,8.13,1.52,16.22.92,24.38-.46,6.15-1.02,12.3-1.61,19.32,4.98,0,9.02.13,13.04-.04,2.82-.12,4.01.9,4.78,3.72,3.08,11.21-1.29,18.2-13.25,18.38-10.31.15-21-.45-30.79,2.08-10.39,2.68-19.78-1.57-29.72-1.08-3.87.19-10.45.29-11.67-6.84-.65-3.82,1.76-10.82,5.16-12.76,6.29-3.6,13.15-3.69,20.11-3.48,2.29.07,4.6-.29,6.89-.46l.2-1.29c-3.92-3.5-8.14-6.73-11.69-10.58-4.51-4.89-8.32-10.4-12.72-15.41-2.53-2.88-5.72-5.18-8.41-7.93-10.39-10.59-20.96-20.97-30.2-32.7-4.23-5.37-10.91-8.77-16.26-13.32-2.72-2.31-4.92-5.22-7.42-7.8-2.71-2.79-5.27-5.79-8.32-8.15-1.67-1.3-4.19-2.02-6.35-2.08-7.83-.24-15.66-.09-23.5-.1-5.8,0-10.42-7.47-7.54-12.62,2.83-5.07,5.25-9.63,13.33-8.75,6.74.73,13.91-2.45,20.88-3.91.15-.03.26-.28.39-.29,12.69-1.1,25.37-2.61,38.09-3.11,6.37-.25,9.22,3.19,10.08,9.37.54,3.89,2.43,8.61.91,11.46-1.42,2.67-6.55,3.36-10.05,4.92-1.33.6-2.67,1.19-4.58,2.03,3.55,2.25,4.83,6.29,9.6,7.68,3.04.89,5,5.29,7.61,7.95,5.22,5.3,10.73,10.32,15.78,15.77,4.69,5.05,8.88,10.57,13.42,15.78,5.18,5.94,10.23,12.01,15.83,17.54,4.23,4.17,9.22,7.57,14.52,11.84.21-3.25.57-6.59.6-9.93.06-7.49.14-14.99-.2-22.47-.1-2.13-1.82-4.14-2.45-6.3-.26-.9.49-2.05.58-3.1.22-2.52.58-5.06.4-7.56-.23-3.18-2.35-7.07-1.16-9.34,3.45-6.55,1.56-13.44,2.52-20.07,1-6.93-.12-14.13.3-21.18.58-9.66,2.1-19.27,2.51-28.93.31-7.06-.28-14.19-1.03-21.23-.15-1.38-2.74-2.98-4.51-3.6-3.94-1.39-8.08-2.23-11.38-3.09v-17.77c2.05-.11,4.27.43,4.98-.38,4.92-5.56,9.93-2.06,14.07.33,4.18,2.42,8.08,3.97,12.97,4.54,8.97,1.05,17.81,3.31,26.7,5.05,3.03.6,6.05,1.41,9.11,1.72,9.39.95,11.05,7.12,11.94,15.17.89,8.02-1.67,10.66-9.83,10.63-4.91-.01-9.82-.93-14.74-1.36-.76-.07-1.55.33-2.97.67,1.49,2.47,3.08,4.48,4.01,6.77,2.55,6.31,4.5,12.88,7.33,19.06,1.93,4.21,4.97,7.9,7.44,11.88.82,1.33,1.33,2.84,2.08,4.22,2.97,5.5,5.91,11.01,8.99,16.44,1.2,2.11,3.19,3.84,4.05,6.04,3.44,8.82,9.62,15.86,14.68,23.64,2.63,4.04,3.76,9.02,5.97,13.38,2.82,5.58,6.01,10.97,9.09,16.41,2.84,5.02,7.77,8.99,7.59,15.52-.02.72.55,1.87,1.14,2.12,3.66,1.52,5.49,4.32,6.5,8,.12.43,2.85.61,2.87.53,2.09-8.62,10.4-12.99,13.91-20.84,5.12-11.42,11.42-22.34,17.54-33.29,3.51-6.29,7.78-12.15,11.46-18.35,1.41-2.37,1.9-5.28,3.25-7.7,2.8-5.05,5.89-9.93,9.08-15.18Z"/>
  <path class="cls-2" d="M749.52,687.96c-2.07.3-4.22.33-6.2.95-6.54,2.03-16.22-3.76-13.77-11.34,1.21-3.76,2.49-8.52,7.63-9.69.42-.1.81-.43,1.17-.72,8.95-7.08,19.54-9.94,30.42-12.49,6.16-1.44,11.96-4.17,18.56-3.63,4.49.37,13.03,6.18,14.13,10.16,1.01,3.66-5.23,12.14-9.03,12.92-2.22.45-4.15,2.13-6.35,2.87-2.3.78-4.76,1.55-7.13,1.5-3.49-.07-4.54,1.04-4.57,4.58-.03,4.24-1.66,8.5-1.46,12.7.33,7.06,1.55,14.08,2.38,20.96,4.05-5.15,8.11-10.95,12.84-16.13,3.71-4.07,8.19-7.47,12.45-11.01,5.09-4.23,10.34-8.25,15.46-12.45,7.63-6.26,15.4-12.37,22.74-18.96,4.41-3.96,8.11-8.7,12.14-13.08.55-.59,1.18-1.1,2.19-2.02-3.65-.91-7.04-1.75-10.42-2.62-.94-.24-2.54-.35-2.68-.85-1.12-3.94-3.01-8.07-2.62-11.94.57-5.68,3.33-6.98,10.3-7.55,2.08-.17,5.36,1.6,5.48-2.75,0-.18.78-.46,1.21-.49,10.56-.67,21.12-1.71,31.69-1.81,5.74-.05,8.35,3.44,8.64,9.67.14,3.06,3.76,6.09.25,9.17-1.21,1.06-2.68,2.7-3.96,2.63-4.36-.22-6.82,1.33-8.05,5.61-1.51,5.29-5.91,8.05-10.03,11.33-5.06,4.03-9.13,9.32-13.61,14.09-2.99,3.2-5.98,6.41-8.89,9.67-2.23,2.49-4.36,5.07-6.51,7.64-5.25,6.26-10.4,12.61-15.79,18.75-1.24,1.41-3.53,1.87-4.92,3.2-2.96,2.84-5.65,5.95-8.43,8.96-4.5,4.87-8.8,9.95-13.54,14.57-2.3,2.23-5.81,3.23-8.07,5.48-3.43,3.42-6.24,7.44-9.28,11.16,6.86,4.89,13.64,9.83,20.55,14.58,1.58,1.08,3.59,1.54,5.42,2.24,2.25.86,5.06,1.11,6.68,2.63,3.72,3.49,8.52,3.78,12.78,5.62,3.47,1.5,6.07,4.93,9.27,7.19,3.41,2.41,7.13,4.37,10.62,6.67,1.96,1.29,3.59,3.12,5.62,4.24,6.71,3.69,13.77,6.81,20.26,10.84,5.01,3.12,11.29,4.32,14.57,10.42,1.92,3.56,5.67,6.14,7.74,8.28,3.48-.42,6.25-.94,9.03-1.04,5.79-.22,11.59-.04,17.37-.36,6.96-.39,11.65,7.75,7.16,14.2-1.41,2.02-1.12,5.58-2.81,6.97-2.6,2.13-6.15,3.33-9.47,4.32-3.52,1.05-7.23,1.55-10.9,1.97-1.55.18-3.2-.67-4.81-.71-2.21-.05-4.42.24-6.64.33-1.03.04-2.09.11-3.08-.1-5.82-1.2-11.38-2.17-17.47.06-3.53,1.29-8.05-.01-12.11-.34-1.61-.13-3.16-.99-4.77-1.12-7.06-.55-9.62-5.23-5.74-11.12,1.09-1.65,3.39-2.46,4.65-4.04,1.23-1.55,1.84-3.6,3.09-6.18-4.88-3.26-9.14-8.55-16.41-9.71-2.97-.47-7.11-2.01-8.23-4.29-4.04-8.26-11.22-11.9-18.84-15.62-4.73-2.31-8.77-5.97-13.29-8.75-8.26-5.09-14.96-11.87-21.58-18.84-2.25-2.37-5.18-4.08-8.03-6.27,0,19.19-.04,38.32.03,57.44.01,3.29,4.4,5.54,10.49,5.5,3-.02,6.06-.52,7.67,2.98.69,1.5,1.51,2.95,2.23,4.44,3.8,7.89-2.78,17.04-11.23,18.71-6.73,1.33-12.78-.96-19.19-.51-6.47.45-12.99.14-19.49.06-10.79-.14-12.22-1.46-11.97-12.13.09-3.85,1.04-7.71,1.95-11.49.21-.88,1.79-1.7,2.89-2.04,3.65-1.11,7.38-1.99,9.46-2.53.5-6.13,1.16-10.74,1.18-15.35.02-6.47-.5-12.93-.63-19.4-.02-1.09.8-2.2,1.8-3.56.97-1.58,1.74-2.89,1.74-4.21.07-27.92.09-55.84-.03-83.77,0-1.76-1.24-3.51-1.9-5.27Z"/>
  <path class="cls-8" d="M1459.97,64.1c3.66-1.91,6.8-3.82,10.24-.23.54.56,2.25.26,3.34,0,11.37-2.68,22.75-2.33,34.15-.26,1.45.26,2.93.49,4.4.52,6.28.11,8.29,3.41,9.95,9.37,2.44,8.78-3.73,16.28-2.12,24.69.73,3.83,1.25,7.75,1.33,11.64.13,6.73-.28,13.47-.26,20.21.01,4.64.6,9.28.47,13.91-.09,3.49-1.27,6.96-1.29,10.44-.02,2.65,1.57,5.33,1.47,7.95-.28,7.34-1.27,14.66-1.61,22-.34,7.45.63,15.07-.55,22.36-1.4,8.6-4.27,17.01-6.97,25.34-1.31,4.04-5.4,3.32-8.59,2.98-4.72-.5-8.9-5.09-9.49-9.85-.89-7.09-2.06-14.17-2.53-21.29-.31-4.7.64-9.46.59-14.19-.05-4.48-.78-8.95-1-13.43-.33-6.8-.42-13.61-.72-20.42-.55-12.56-1.08-25.11-1.82-37.66-.35-6.02-1.46-12.01-1.65-18.04-.11-3.62.89-7.28,1.49-11.67-1.72-.16-3.86-1.03-5.35-.39-8.76,3.78-17.86.96-26.76,1.63-9.35.71-19.19-1.6-28.09.5-8.39,1.98-16.71,1.14-25,2.37-11.57,1.72-23.58.24-35.34,1.02-4.63.31-9.13.23-13.65-.2-3.65-.35-7.25-1.18-10.74-1.78-.34-5.11-1.41-9.42,3.68-11.72.38-.17.27-1.32.47-1.99,1.5-5.12,4.68-8.89,10.21-8.49,4.61.33,9.35-1.46,14.03-1.48,4.34-.02,8.66,1.23,13.02,1.6,7.33.62,14.43-.47,21.41-2.93,2.13-.75,4.69-.24,7.04-.46,6.53-.63,13.03-1.69,19.57-1.94,8.74-.33,17.49-.07,26.69-.11Z"/>
  <path class="cls-1" d="M122.43,852.62c-.24,5.2-.83,10.02-.76,14.83.07,5.11.77,10.21,1.2,15.4,4.7,1.49,9.52,3.33,14.5,4.42,1.79.39,3.99-1.01,5.98-1.65,12.38-4.01,25.42-3.69,37.99-5.92,10.12-1.79,20.38-2.57,29.88-1.12,17.41,2.67,34.67.34,51.94,1.58,5.52.4,11.02,1.15,16.53,1.76,5.89.66,13.02,13.01,9.52,17.46-1.92,2.43-6.08,3.16-9.29,4.49-8.08,3.34-16.57,1.55-24.88,1.78-8.84.25-17.7.01-26.54.11-1.59.02-3.18.91-4.77.92-3.66,0-7.33-.27-10.99-.45-2.29-.12-4.61-.55-6.88-.36-4.7.4-9.37,1.36-14.07,1.66-11.33.73-22.68,1.13-34,1.84-4.1.26-8.18,1.54-12.26,1.47-6.15-.1-12.28-1.14-18.44-1.44-2.02-.1-4.13,1.37-6.12,1.2-6.26-.51-12.72-.68-18.64-2.49-4.75-1.45-4.01-7.25-4.38-11.19-.49-5.36.67-10.85.73-16.29.15-12.26.53-24.54-.08-36.77-.52-10.45-2.58-20.81-3.41-31.26-.54-6.78-.31-13.66-.02-20.47.3-6.86,1.37-13.69,1.58-20.56.12-4.11-.82-8.25-1.18-12.39-.17-1.97-.25-3.97-.08-5.93.38-4.36.84-8.72,1.48-13.05.37-2.52.79-5.16,1.84-7.44,2.73-5.93,8.23-6.17,12.14-.96.89,1.19,2.89,1.5,4.27,2.38,1.39.89,3.55,1.83,3.79,3.05.89,4.55,1.08,9.23,1.64,13.85.4,3.36,1.01,6.69,1.43,10.05.1.76-.3,1.56-.3,2.34.02,4.75.17,9.5.1,14.25-.03,2.17-.51,4.34-.73,6.51-.19,1.79-.72,3.68-.39,5.38,1.33,6.77,1.21,13.48.68,20.35-.77,10.12-.77,20.32-.72,30.48.02,3.93,1.07,7.85,1.71,12.15Z"/>
  <path class="cls-8" d="M146.63,107.89c-2.48-.43-4.52-.86-6.55-1.3-.63-.13-1.26-.46-1.87-.42-7.16.54-14.31,1.33-21.48,1.63-2.76.12-5.56-1.14-8.36-1.19-2.35-.04-4.7.87-7.07,1.15-.91.11-1.9-.38-2.49-.52,0,4.53-.2,9.12.04,13.69.46,8.49,1.39,16.95,1.73,25.45.3,7.59.05,15.21.05,22.82,0,10.77-.23,21.54.08,32.3.27,9.57,1.74,19.14,1.56,28.68-.12,6.4-2.1,12.79-3.48,19.13-.19.86-1.79,2.08-2.66,2.02-3.86-.29-8.24-.04-11.38-1.83-2.75-1.57-4.9-5.37-5.84-8.61-.98-3.38-.07-7.27-.22-10.93-.54-13.07-1.37-26.12-1.71-39.19-.29-11.31.18-22.65-.11-33.96-.36-14.33-1.06-28.65-1.78-42.96-.45-9.01-1.03-18.02-1.86-27.01-.41-4.43,2.66-5.56,5.58-6.07,3.62-.63,7.45,0,11.15-.3,4.51-.37,8.98-1.62,13.47-1.65,5.89-.04,11.82,1.27,17.69.99,5.54-.26,11.01-1.84,16.52-2.78,1.13-.19,2.59-.61,3.41-.12,4.91,2.91,9.68-.53,14.54-.11,4.96.43,10.15.92,14.95-.05,12.13-2.47,24.33-1.73,36.46-1.47,8.66.18,17.29,2.19,26.85,3.5,0,3.4-.54,6.69.13,9.69.92,4.1-1.85,5.07-4.22,6.79-.88.64-1.7,1.87-1.85,2.93-.8,5.65-3.25,7.69-9.03,7.92-7.48.29-15.16,2.17-22.34.93-5.01-.86-9.19,1.43-13.61.75-11.99-1.84-23.91.44-36.31.11Z"/>
  <path class="cls-1" d="M1529.06,880.95c.61,5.33,1.21,10.17,1.83,15,.06.49.07,1.3.32,1.4,7.01,2.76.49,7.21,1.28,10.74.11.48-.91,1.68-1.53,1.78-4.76.77-8.59,4.4-14.1,3.42-4.35-.77-9.06.47-13.61.86-.62.05-1.28.64-1.82.52-18.15-3.95-36.51-1.46-54.75-1.49-14.59-.02-29.18-.49-43.78-.42-3.31.02-6.47-.68-10,.02-5.28,1.05-7.27-4.49-10.29-7.44-.85-.83,1.09-4.54,1.77-6.92.31-1.08.57-2.18,1.02-3.19,1.65-3.72,3.87-6.69,8.36-7.4,7.52-1.19,14.99-2.68,22.49-3.98,1.13-.2,2.33-.07,3.49-.07,11.46,0,23.25-1.62,34.28.57,7.28,1.45,13.4-2.27,20.17-.66,4.51,1.07,9.25,1.24,13.9,1.69.87.08,1.79-.59,2.7-.65,1.81-.13,3.64-.17,5.45-.06,2.74.16,5.48.71,8.19.56.62-.03,1.43-2.2,1.59-3.46.15-1.22-.74-2.56-.63-3.8.89-10.32-3.17-19.97-4.03-29.98-1-11.62-.31-23.38-.52-35.07-.08-4.76-.77-9.51-.87-14.27-.1-4.94-.04-9.91.36-14.83.51-6.29.76-12.73,2.43-18.74,1.03-3.69,3.96-7.37,7.02-9.84,3.11-2.52,11.05,3.62,12.11,7.94,4.5,18.3,3.29,36.9,3.66,55.44.09,4.78,1.68,9.52,2.47,14.29.27,1.6.22,3.26.32,4.89.1,1.61.16,3.22.3,4.82.06.64.46,1.29.4,1.91-1.25,11.98.67,23.95,0,36.42Z"/>
  <path class="cls-8" d="M1440.47,794.74c6.09-.12,10.16,2.26,13.2,7.11,1.45,2.3,5.15,3.61,5.8,5.93,2.35,8.49,1.14,16.52-4.37,23.97-2.83,3.82-6.03,6.1-10.52,6.19-4.18.09-8.39-.39-12.56-.91-1.86-.23-3.6-1.25-5.44-1.76-4.02-1.12-6.87-3.32-7.53-7.71-.89-5.88-5.38-11.81-1.13-17.67,3.78-5.22,8.11-10.21,13-14.35,1.9-1.61,6-.61,9.55-.8Z"/>
  <path class="cls-1" d="M1415.21,144.53c4.4-1.87,8.47-3.56,12.56-5.21.76-.3,1.59-.48,2.41-.57,5.4-.6,15,5.49,17.08,10.5.7,1.68,2.2,3.02,3.66,4.95,0,3.77-.06,8.42.01,13.07.11,6.59-2.43,11.54-8.81,13.9-4.47,1.65-9.05,2.99-13.61,4.36-.44.13-1.16-.48-1.68-.84-5.13-3.57-10.32-7.09-12.44-13.46-.2-.6-.55-1.22-1-1.66-2.36-2.26-6.28-3.91-2.99-8.21-3.38-5.36,1.42-9.38,2.37-14.02.2-.98,1.39-1.76,2.44-2.82Z"/>
  <path class="cls-6" d="M183.14,814.52c1.17,6.24,3.02,12.22,2.68,18.09-.2,3.38-3.61,6.84-6.17,9.73-1.78,2.01-4.48,3.31-6.96,4.54-.85.42-2.29-.28-3.43-.56-3.17-.77-6.37-1.44-9.46-2.47-1.59-.53-3.71-1.38-4.29-2.67-4.4-9.71-6.6-19.7-2.22-30.09.37-.89.79-1.92,1.51-2.46,8.9-6.71,23.3-5.2,28.34,5.89Z"/>
  <path class="cls-6" d="M166.12,145.23c1.47,3.73,1.83,7.88,4,10.56,3.55,4.39,2.5,9.27,3.17,13.98.16,1.12-.26,2.65-.98,3.52-3.84,4.65-19.72,9.33-24.99,7.13-1.84-.77-3.55-2.6-4.62-4.37-4.78-7.91-3.3-22.25,3.17-28.85,1.62-1.65,4.44-2.8,6.79-2.93,4.36-.24,8.77.43,13.45.97Z"/>
  <path class="cls-1" d="M689.77,822.62c2.7-2.62,4.99-5.24,7.82-6.99,1.13-.7,3.46.54,5.24.93,3.13.69,6.55.81,9.3,2.24,3.85,1.99,5.78,10.82,3.96,15.1-.38.9-1.25,1.87-1.11,2.68.93,5.49-1.23,9.03-6.41,10.76-2.22.74-4.6,1.94-6.77,1.69-2.66-.31-5.22-1.83-7.74-2.99-5.05-2.34-8.27-12.9-5.81-18.42.65-1.45.9-3.09,1.52-4.98Z"/>
  <path class="cls-7" d="M1218.14,829.95c-5.43,6.45-13.67,8.72-19.72,5.76-5.51-2.69-9.97-14.03-7.59-19.28,3.01-6.63,12.71-10.6,19.43-8.51,6.26,1.95,7.05,7.16,7.96,12.2.56,3.06.09,6.3-.08,9.83Z"/>
  <path class="cls-5" d="M749.51,688.43c.67,1.29,1.9,3.04,1.9,4.8.12,27.92.1,55.84.03,83.77,0,1.31-.77,2.63-1.46,3.99-.35-30.66-.42-61.37-.48-92.55Z"/>
  <path class="cls-4" d="M1444.77,571.41c1.09-.27,2.42-.26,3.75-.18,10.76.65,17.78-3.56,22.28-13.3.45-.98,1.26-1.79,2.13-2.68-1.56,3.09-3.29,6.2-5.15,9.23-1.73,2.81-3.54,5.57-5.42,8.28-1,1.44-2.23,2.74-2.81,3.44-5.28-1.63-9.9-3.06-14.77-4.8Z"/>
  <path class="cls-8" d="M313.72,35.03c-.05-.16.33-.19.52-.15s-.05.42-.05.42c0,0-.42-.11-.47-.27Z"/>
  <path class="cls-8" d="M296.79,34.92c.05-.1.18-.17.24-.14.07.03,0,.3,0,.3,0,0-.3-.06-.25-.16Z"/>
  <path class="cls-8" d="M312.77,34.83c0-.26.26-.3.67-.09-.07.12-.24.13-.67.09Z"/>
</svg>