<?xml version="1.0" encoding="UTF-8"?>
<svg id="Layer_1" data-name="Layer 1" xmlns="http://www.w3.org/2000/svg" viewBox="0 0 670.27 654.74">
  <defs>
    <style>
      .cls-1 {
        fill: #c8392b;
      }

      .cls-2 {
        fill: #c8392b;
      }

      .cls-3 {
        fill: #c8392b;
      }

      .cls-4 {
        fill: #c8392b;
      }

      .cls-5 {
        fill: #c8392b;
      }

      .cls-6 {
        fill: #c8392b;
      }

      .cls-7 {
        fill: #c8392b;
      }

      .cls-8 {
        fill: #c8392b;
      }

      .cls-9 {
        fill: #c8392b;
      }

      .cls-10 {
        fill: #c8392b;
      }

      .cls-11 {
        fill: #c8392b;
      }

      .cls-12 {
        fill: #c8392b;
      }

      .cls-13 {
        fill: #c8392b;
      }

      .cls-14 {
        fill: #c8392b;
      }

      .cls-15 {
        fill: #c8392b;
      }

      .cls-16 {
        fill: #c8392b;
      }

      .cls-17 {
        fill: #c8392b;
      }

      .cls-18 {
        fill: #c8392b;
      }

      .cls-19 {
        fill: #c8392b;
      }

      .cls-20 {
        fill: #c8392b;
      }

      .cls-21 {
        fill: #c8392b;
      }
    </style>
  </defs>
  <path class="cls-3" d="M10.48,8.68s0,.17.42.15c4.88-.02,9.35.19,13.78-.13,1.68-.12,3.26-1.46,4.89-2.25,0,0,.02.08.42.14,1.06.08,1.78.3,2.37.1,5.26-1.83,10.5-2.75,15.93-.62.64.25,1.58-.43,2.38-.43,4.05.02,8.1.27,12.14.1,1.37-.06,2.69-1.11,4.03-1.71,0,0-.06-.16.41-.1,6.57.09,12.67.09,18.76.16,13.37.17,26.75.43,40.12.48,1.19,0,2.38-1.29,3.57-1.99.08-.36.3-.57,1.02-.63.6,0,.83-.08,1.04-.2,1.66-.22,3.32-.44,5.58-.31,1.69.22,2.78.09,3.86-.04,6.93-.14,13.86-.38,20.79-.39,15.56-.02,31.12.08,47.26.31.88.22,1.17.17,1.44.03.94-.39,1.89-.79,3.06-.54,2.21,1.42,4.17,2.77,6.19,2.87,14.3.68,28.6-.84,42.93-.01,14.27.83,28.59.63,42.88,1.15,7.93.29,15.84,1.23,23.77,1.71,3.14.19,6.32.14,9.45-.13,4.25-.38,8.49-1.66,12.71-1.53,12.73.4,25.44,1.3,38.15,1.98,2.86.15,5.73.19,8.59.25,8.51.18,17.01.37,25.52.51,3.88.06,7.76.03,11.65.02,9.25-.02,18.5-.04,27.75-.06,9.34-.02,18.7.19,28.03-.17,4.58-.18,9.17-2.01,13.8,1.38,8.03,0,15.59.06,23.15-.05,1.49-.02,2.97-.72,4.62-1.26.38-.34.6-.52.83-.69.21.03.43.07,1.21.47,2.15.76,3.72,1.48,5.3,1.49,13.91.09,27.82.11,41.72-.04,1.59-.02,3.17-1.2,4.76-1.85,7.97-.55,15.95-1.1,24.43-1.17,8.93.65,17.36.88,25.78.91.94,0,1.89-1.11,2.83-1.7,1.14-.17,2.28-.39,3.43-.49,2.91-.24,5.98.09,8.7-.74,4.49-1.37,10.06.66,9.94,5.16-.27,10.2-1.66,20.36-3.22,30.98-.7,8.96-.77,17.48-.84,26,.06,8.12.12,16.24.07,24.95-.43,1.5-1.02,2.41-1.02,3.32-.06,13.04-.09,26.08.01,39.12,0,1.17.92,2.33,1.42,3.5-.44,1.7-1.05,3.38-1.29,5.11-.52,3.73-.93,7.49-1.23,11.25-.1,1.31.37,2.66.4,3.99.06,2.48.12,4.97-.05,7.44-.18,2.57-1.02,5.15-.86,7.69.22,3.48,1.08,6.93,1.7,10.39.29,1.6.7,3.18,1,4.78.32,1.66,1.27,3.62.73,4.96-2.8,6.95-2.25,13.8-.35,20.78.43,1.57.29,3.29.48,4.93.55,4.69,1.4,9.35,1.63,14.05.22,4.52-.2,9.06-.28,13.6-.05,2.73.12,5.47-.04,8.19-.28,4.55-.75,9.08-1.17,14.4.39,1.83.82,2.88,1.24,3.94.09,6.43.18,12.86-.1,20.07-.22,2.79-.07,4.81.08,6.83.09,6.85.19,13.71.1,21.14-.22.89-.17,1.19-.03,1.47.4.94,1.14,1.89,1.12,2.83-.04,1.93-.76,3.86-.7,5.78.29,9.07.86,18.14,1.09,27.22.06,2.41-1.25,4.88-1.04,7.25.93,10.49,2.36,20.93,3.2,31.42.24,2.95-.92,6.02-1.48,9.82-.25,2.59-.64,4.4-.64,6.21-.04,36.95-.05,73.9.02,110.85,0,2.28.68,4.56,1.05,6.83.42,2.85,1.16,5.7,1.21,8.56.16,9.98.24,19.97.02,29.95-.09,4.23-1.38,8.43-1.42,12.65-.03,3.7,1.23,7.4,1.33,11.12.06,2.3-1.77,4.76-1.39,6.92.93,5.39,2.93,10.59,3.96,15.96,1.35,7.06,1.98,14.26,3.33,21.32.95,4.99.44,9.13-5.22,10.06-4.04.66-8.29.09-12.44.11-6.7.02-13.4.09-20.1.12-4.86.02-9.71,0-14.57.02-.71,0-1.42.34-2.13.33-4.61-.12-9.22-.45-13.83-.41-3.63.03-7.25.47-10.87.77-.81.07-1.6.46-2.4.49-13.97.44-27.94.9-41.92,1.24-13.27.32-26.55.61-39.82.72-14.22.12-28.44,0-42.66.06-1.79,0-3.57.45-6.13.55-12.69-.3-24.61-.47-36.54-.53-.53,0-1.06.98-1.6,1.51-2.97,2.14-6.03,3.48-9.95.52-1.74-1.13-3.06-2.06-4.39-2.08-9.76-.12-19.53-.15-29.3.02-1.43.02-2.83,1.24-4.24,1.91-.84.63-1.64,1.75-2.52,1.81-7.04.51-14.09,1.17-21.13,1.11-10.83-.09-21.68-.38-32.48-1.21-10.42-.8-20.76-2.64-31.18-3.51-4.04-.34-8.19.86-12.3,1.07-1.98.1-4-.44-6.43-1.31-10.26-.76-20.1-.89-29.93-1.03-4.32.34-8.71,2.88-12.96-.55-.34-.27-1.86,1.36-2.82,1.35-1.63-.03-3.26-.66-5.29-1.69-1.91-1.11-3.42-1.97-4.94-1.98-8.6-.07-17.2.05-25.8.11-8.7,3.79-18.07-.94-27.09,1.8-7.38-4.38-15.58.67-23.7-1.16-7.73-1.75-16.16-.45-24.29-.41-8.44.04-16.89.17-26.14.3-1.61-.17-2.41-.56-3.22-.56-14.31-.07-28.62-.13-42.93-.03-1.28,0-2.55,1.15-3.82,1.77-3.27-.12-6.54-.26-9.81-.36-1.72-.05-3.45,0-5.17-.05-.9-.03-1.86-.46-2.67-.24-5,1.34-8.74-1.16-8.86-6.31-.14-6.09.11-12.19-.1-18.28-.09-2.71-1.08-5.38-1.32-8.1-.17-1.99.14-4.03.4-6.03.2-1.59.93-3.15.94-4.73.08-18.48-.91-37.03.47-55.41.69-9.2-1.83-18.07-.43-27.09.57-3.65,1.16-7.3,1.68-10.96.14-.98.12-1.99.08-2.98-.39-9.77-1.01-19.54-1.13-29.32-.07-5.5.76-11.01,1.03-16.53.18-3.62-.09-7.26.13-10.87.51-8.18,1.28-16.33,1.77-24.51.1-1.74-.54-3.53-.72-5.89.3-.83.46-1.09.6-1.36,0,0-.02.08.26-.09,1.11-3.44,2.43-6.68,2.66-10,.4-5.56.12-11.18.31-17.12.06-5.29.05-10.24-.2-15.17-1.31-26.54,2.45-53.09.2-79.96.08-7.42-.06-14.5-.2-21.58-.01-.42-.02-.85.15-1.81.38-1.05.59-1.56,1.07-2.23.11-3.47-.15-6.79-.19-10.1-.18-13.89-.29-27.77-.43-41.66,0,0-.02-.09.35-.25,2.58-1.99,2.41-3.51-.24-4.69,0,0,.08,0,.13-.38.43-2.18.8-3.99,1.32-6.06-.39-1.05-.92-1.85-1.45-2.65,0,0-.41-.22-.5-.57s-.07-.66.1-1.02c.23-1.7.29-3.04.35-4.38,0,0-.01-.08.38-.29.92-2.03,2-3.88,1.9-5.67-.52-9.88-1.32-19.75-2.04-29.62-.06-.83-.22-1.65-.34-2.47,0,0,0-.01.35-.21.94-1.63,2.18-3.17,1.98-4.49-.62-4.15-1.79-8.21-2.75-12.31-.36-4.77-.72-9.54-.71-14.72.76-1.05,1.51-1.68,1.51-2.32.07-11.41.11-22.82-.02-34.23-.02-1.29-1.14-2.56-1.74-3.84-.42-4.24-.9-8.48-1.24-12.72-.16-1.96.03-3.95-.09-5.92-.12-1.95-.54-3.89-.63-5.85-.12-2.63.36-5.35-.16-7.87-1.54-7.44-3.34-14.84-5.26-22.19C3.15,28.85.9,23.65.04,18.22c-.35-2.2,1.95-4.83,3.53-7.1,2.63-.71,4.77-1.57,6.91-2.44M172.8,630.8s0-.06.48.27c.53.23,1.07.47,2.25.47,1.41.13,2.82.26,4.7.98,8.83.14,17.66.28,27.17.35,2.95-.34,5.89-.77,8.84-.98,1.4-.1,2.85.11,4.23.38,1.39.27,2.74,1.12,4.11,1.13,11.01.09,22.02.2,33.02,0,9.65-.18,19.3-.98,28.95-1.11,4.8-.07,9.68,1.45,14.41.99,7.94-.77,15.67,1.69,23.65.62,4.36-.59,9,1.28,13.5,1.18,14.95-.33,29.9-1.01,44.84-1.64,13.33-.56,26.66-1.23,39.99-1.9.62-.03,1.23-.47,2.57-.32,8.42.2,16.85.39,26.08.41,7.77-.27,15.57-.34,23.31-.97,2-.16,3.85-2.1,6.11-3.67,2.22,0,4.43.01,6.65,0,1.96-.02,4.16.5,5.82-.22,4.57-1.99,11.03-1.54,15.28,1.71.4-.02.8-.03,2.01-.34,2.59.09,5.18.17,8.12.38.37-.05.73-.1,1.97-.43,6.98.28,13.95.57,21.29,1.06.52-.07,1.05-.14,2.02-.36,0,0,.47-.09.84-.35.25-.17.49-.36,1.45-.77.96.26,1.92.51,2.58.94-.13.06-.26.12-.39.18.26-.09.53-.18,1.41-.62,1.17.09,2.35.18,3.83.32.32,0,.6-.12,1.06-.98,2.32-.17,4.63-.41,6.95-.5,5.29-.2,10.58-.4,15.87-.44,5.95-.05,11.9.07,18.72.08.56-.14,1.11-.28,2.55-.45,8.42-.02,16.84-.03,26.09.25.59.06,1.17.12,2.51.31,1.85-.8,3.67-2.21,5.54-2.28,4.86-.16,5.58-2.95,5.52-6.92-.12-8.83-.08-17.66,0-26.48.01-1.6.6-3.18.73-4.78.2-2.49.22-4.99.33-7.97,0,0,0-.49.39-1.17.19-.8.55-1.6.56-2.4.04-17.71.08-35.42-.04-53.12,0-1.28-1.16-2.55-2.36-4.1-.14-4.33-.43-8.66-.38-12.99.05-4.13-2.44-8.33.56-12.47.59-.82-.32-2.78-.67-4.18-.27-1.09-1.14-2.16-1.06-3.18.53-6.45,1.56-12.86,1.83-19.32.33-7.86.12-15.75.05-23.62-.02-1.61-.57-3.21-.74-4.82-.36-3.48-1.71-7.3-.76-10.39,3.34-10.81.64-21.41.11-32.1-.14-2.84,1.04-5.74,2.2-9.09.35-.54,1-1.07,1.01-1.61.12-7.04.21-14.08.11-21.12-.01-.95-1.08-1.88-2.3-3.2.09-1.56.37-3.14.23-4.68-.63-6.91-1.62-13.8-2.02-20.72-.44-7.45-.29-14.93-.55-22.39-.15-4.09-1.01-8.19-.85-12.25.21-5.2,1.31-10.36,1.72-15.56.75-9.61,1.28-19.23,1.87-28.85.07-1.16.31-2.51-.16-3.45-2.9-5.71-1.46-11.52-1.02-17.42.32-4.23,3.25-8.72-.54-12.86-.29-.32.11-1.24.13-1.89.35-9.17.68-18.33,1.71-27.71.54-3.73,2.13-7.67,1.44-11.15-2.92-14.57-2.06-28.76,1.85-43.02,1.03-3.74,2.69-8.55-2.54-12.31.03-1.66.09-3.32.08-4.97-.06-6.73-.05-13.47-.26-20.2-.19-6.44-.62-12.86-.23-19.27.24,0,.48.01,1.08-.7.18-8.72.47-17.44.49-26.16,0-3.91-.51-7.82-.82-12.21,0,0-.04-.48.1-.69,0,0,.26.01.79-.16.35-.31,1.04-.69.99-.93-.88-5-1.84-9.98-2.95-15.62,0-.22,0-.45-.21-1.37-2.05-.65-4.12-1.91-6.13-1.83-5.05.2-10.09,1.51-15.13,1.46-11.5-.12-22.99-.85-34.49-1.13-1.26-.03-2.56,1.19-4,1.54,0,0,.14.3-.49-.05-1.72-.33-3.44-.98-5.15-.93-4.13.11-8.25.54-12.78.26-1.51-.28-3.03-.79-4.54-.79-7.91,0-15.82.06-23.72.31-1.43.05-2.83,1.08-4.58,1.94-.28.14-.56.16-1.13-.58-1.87-.61-3.76-1.8-5.6-1.72-4.25.18-8.47,1.43-12.71,1.44-36.58.12-73.16.15-109.74,0-6.41-.03-12.8-1.21-19.22-1.47-4.53-.19-9.08.27-14.31.05-1.64-.19-3.28-.53-4.93-.53-22.81-.02-45.63,0-69.1-.3-3.8-.54-7.59-1.08-11.84-1.5-.32.05-.62.02-1.84-.1-.91.04-1.82.09-2.66.12,0,0,0,.08-.31-.62-1.14-.52-2.26-1.44-3.41-1.48-5.41-.16-10.84-.19-16.25,0-1.29.05-2.55,1.12-4.62,1.51-3.33.07-6.66.11-9.98.21-6.22.19-12.45.52-18.67.59-8.8.1-17.6.1-26.4-.06-2-.04-4.05-1.51-5.96-1.31-8.06.87-16.13,3.31-24.08,2.93-9.94-.48-20.17,2.18-30.84-1.95-8.95.02-17.9.04-27.3.2-.47-.05-.93-.09-2.42-.17-6.05-.03-12.11-.24-18.15,0-2.49.1-4.94,1.19-8.35,1.87-5.09.01-10.18-.09-15.26.07-5.2.17-10.39.59-16.53.93-2.99.06-6-.06-8.97.21-4.15.38-6.94,3.12-5.96,6.98,1.12,4.4.21,8.31-.1,12.51-.28,3.82,1.53,7.75,1.68,11.67.83,20.67,1.36,41.36,2.19,62.03.07,1.81,1.52,3.57,2.23,5.35,0,0,0-.1-.12.89-.06,5.55-.27,11.1-.11,16.64.05,1.6,1.14,3.17,1.82,5.69.02,7.23-.06,14.46.15,21.68.05,1.79,1.06,3.56,1.36,6.09.21,3.29.71,6.6.53,9.86-.16,2.85-1.46,5.64-1.6,8.49-.27,5.39-.03,10.8-.07,16.2-.03,3.84.12,7.71-.32,11.51-.9,7.66-2.26,15.26-3.2,22.92-.52,4.22-.4,8.52-.87,12.75-.44,3.94-1.28,7.84-2.24,12.43-.54,3.35-1.23,6.69-1.59,10.06-.44,4.15-.86,8.34-.77,12.5.04,1.76,1.4,3.49,2.1,5.35,0,0,0-.12-.14.7-.06.55-.11,1.1-.17,1.58,0,0,.06.02-.56.33-.2,2.95-.4,5.89-.99,9.51-.13,13.31-.27,26.63-.95,40.26-2.12,1.94-1.39,3.12,1.33,4.46-.35.78-.7,1.55-1.61,2.41-.44,1.13-1.24,2.25-1.25,3.38-.05,7.14.08,14.27.23,22.12.2,2.46.43,4.92.58,7.39.33,5.26.79,10.53.85,15.8.02,2.2-1.2,4.39-1.26,6.61-.17,6.26,0,12.53-.03,18.8,0,1.31-.36,2.61-.51,3.93-.42,3.83-1.11,7.67-1.13,11.5-.02,3.39,1.09,6.79,1.02,10.16-.11,5.22-1.48,10.48-1.06,15.62.45,5.5.7,10.71.17,16.33-1.14,12.05-.39,24.29-.32,36.45.02,2.7,2.17,5.47-.45,9.12-.05,13.28-.17,26.56-.08,39.83.01,1.64,1.08,3.26,1.36,5.51-.24,3.51-.66,7.02-.68,10.53-.03,5.95.06,11.91.35,17.85.16,3.34.99,6.65,1.21,9.99.35,5.43.45,10.87,1.17,16.86,1.72.4,3.43,1.1,5.16,1.13,6.64.14,13.28.17,19.92.02,3.76-.08,7.52-.59,12.12-.78,3.64.21,7.3.71,10.93.56,12.07-.49,24.13-1.58,36.2-1.73,11.12-.13,22.25.65,34.06,1.43,7.33-.12,14.66-.25,22.65-.45.22-.03.44-.05,1.03-.06,0,0,.37.04.95.02.19,0,.39,0,.53.04M277.09,635.81h6.32c-.03-.21-.05-.41-.08-.62h-29.08c0,.21,0,.41.01.62h22.83Z"/>
  <path class="cls-14" d="M504.7,8.81c-4.16-3.39-8.75-1.56-13.33-1.38-9.33.36-18.68.15-28.03.17-9.25.02-18.5.05-27.75.06-3.88,0-7.77.05-11.65-.02-8.51-.14-17.01-.33-25.52-.51-2.86-.06-5.73-.1-8.59-.25-12.72-.68-25.43-1.58-38.15-1.98-4.21-.13-8.46,1.15-12.71,1.53-3.13.28-6.31.32-9.45.13-7.93-.49-15.84-1.42-23.77-1.71-14.29-.53-28.61-.33-42.88-1.15-14.34-.83-28.63.69-42.93.01-2.02-.1-3.98-1.45-6.05-2.6C221.73.48,229.66,0,237.57.05c9.26.05,18.71-.51,27.74,1.1,18.74,3.33,37.49.55,56.19,1.66,5.62.33,11.24,1.13,16.85,1.06,8.91-.1,17.84-1.35,26.71-1,9.74.39,19.41,2.35,29.15,3.04,4.64.33,9.51-1.58,14.04-.92,6.21.91,12.46-1.8,18.72,1.19,2.26,1.08,5.89-.99,8.93-1.18,4.5-.27,9.04-.35,13.54-.14,8.05.38,16.09,1.41,24.13,1.44,6.29.02,12.58-1.3,18.89-1.55,3.71-.14,7.46.65,11.18,1.05,1.64.18,3.27.59,4.9.61,8.16.08,16.31.06,24.85.24.14.33-.08.51-.93.9-3.77.22-6.92.15-10.06.29-5.91.26-11.81.65-17.71.98Z"/>
  <path class="cls-18" d="M663.17,529.74c-.67-2.09-1.35-4.36-1.35-6.64-.07-36.95-.06-73.9-.02-110.85,0-1.81.39-3.61.74-5.79.64,1.27,1.57,2.9,1.58,4.54.09,30.11.06,60.23.09,90.34,0,8.16.18,16.32.17,24.48,0,1.24-.58,2.49-1.2,3.92Z"/>
  <path class="cls-3" d="M12.75,296.65c2.48,26.54-1.29,53.09.02,79.63.24,4.94.26,9.88-.18,15.14-.81.3-1.06.28-1.32.26-.46-3.46-1.29-6.91-1.32-10.37-.14-17.94-.21-35.89,0-53.83.07-5.66,1.17-11.31,1.59-16.98.11-1.53-.85-3.12-.84-4.67.02-2.92.38-5.83,1.11-8.93.51-.19.94-.25.94-.25Z"/>
  <path class="cls-13" d="M129.32,2.67c-.8.62-2,1.92-3.18,1.92-13.38-.05-26.75-.31-40.12-.48-6.09-.08-12.19-.07-18.68-.2,1.11-.42,2.61-1.02,4.12-1.03,13.27-.07,26.54-.07,39.81-.02,5.89.02,11.77-2.06,18.05-.19Z"/>
  <path class="cls-18" d="M586.56,6.69c-1.38.83-2.96,2.02-4.55,2.04-13.91.15-27.81.12-41.72.04-1.58-.01-3.15-.73-5.03-1.32,12.4-.41,25.09-.63,37.78-.83,4.44-.07,8.88-.08,13.52.08Z"/>
  <path class="cls-14" d="M13.11,219.18c.38,13.64.5,27.53.67,41.42.04,3.32.31,6.63-.05,10.09-.52.14-1.01.08-1.01.08-.34-10.01-.73-20.02-.98-30.03-.14-5.56-.13-11.12,0-16.68.04-1.56.74-3.1,1.38-4.89Z"/>
  <path class="cls-11" d="M13.08,161.12c.36.59.52,1.41.58,2.24.72,9.87,1.52,19.74,2.04,29.62.09,1.79-.98,3.64-1.86,5.66-.94-10.61-1.6-21.41-2.07-32.21-.07-1.68.69-3.39,1.32-5.31Z"/>
  <path class="cls-8" d="M33.26,647.8c.82-.73,2.09-1.88,3.37-1.89,14.31-.1,28.62-.03,42.93.03.8,0,1.6.39,2.78.77-1.35.45-3.09.74-5.45.81-1.45-.11-2.28-.02-3.11.07-7.69.1-15.38.2-23.72.11-1.19-.1-1.74-.01-2.29.08-4.69.04-9.38.08-14.53,0Z"/>
  <path class="cls-7" d="M658.45,136.3c-.66-.73-1.57-1.89-1.58-3.06-.1-13.04-.08-26.08-.01-39.12,0-.91.59-1.82,1.17-2.98.38,9.43.49,19.1.4,29.34-.33.84-.27,1.09-.04,1.31.08,4.69.15,9.39.07,14.52Z"/>
  <path class="cls-8" d="M372.25,651.72c.95-.58,2.36-1.8,3.78-1.83,9.76-.17,19.53-.15,29.3-.02,1.33.02,2.65.94,4.2,1.76-12.12.21-24.47.11-37.27.09Z"/>
  <path class="cls-7" d="M11.93,89.25c.61.81,1.73,2.08,1.75,3.37.14,11.41.1,22.82.02,34.23,0,.64-.75,1.27-1.42,1.94-.32-.74-.37-1.52-.14-2.88.17-1.42.05-2.25-.06-3.08-.06-.46-.12-.92.04-1.89.13-1.04.05-1.58-.04-2.11-.05-9.7-.1-19.41-.15-29.58Z"/>
  <path class="cls-13" d="M66.39,4.14c-.9.49-2.22,1.54-3.59,1.6-4.04.17-8.09-.09-12.14-.1-.8,0-1.74.68-2.38.43-5.43-2.13-10.68-1.21-15.93.62-.58.2-1.31-.02-2.41-.09,3.86-2.35,7.98-4.58,13.35-3.18,2.67.7,5.81-.65,8.72-.52,4.65.21,9.29.88,14.38,1.24Z"/>
  <path class="cls-4" d="M420.14,651.48c.06-.57.59-1.55,1.12-1.55,11.92.06,23.85.23,36.11.56-1.06.53-2.46,1.18-3.86,1.18-10.97.02-21.93-.08-33.37-.19Z"/>
  <path class="cls-10" d="M11.03,391.98c.49-.28.74-.26,1.37-.2.37,5.63.66,11.24.26,16.81-.24,3.31-1.55,6.55-2.71,9.98-.24-6.94-.2-14.04-.03-21.14.04-1.72.56-3.44,1.1-5.45Z"/>
  <path class="cls-7" d="M236.04,649.11c9.61-.24,19.45-.1,29.52.33-9.61.21-19.45.13-29.52-.33Z"/>
  <path class="cls-8" d="M184.17,646.23c8.43-.3,17.04-.43,25.64-.36,1.51.01,3.02.87,4.75,1.66-9.14.31-18.5.31-28.45.03-.78-.49-1.01-.65-1.28-.75-.16-.11-.33-.22-.66-.58Z"/>
  <path class="cls-7" d="M639.34,4.89c-.47.62-1.42,1.73-2.36,1.73-8.42-.03-16.85-.26-25.6-.63.04-.2.4-.21,1.25-.3.74-.23.96-.41,1.15-.64.51-.07,1.03-.14,2.03-.13.49.08.69.02.69.02,7.46-.02,14.92-.05,22.85-.05Z"/>
  <path class="cls-7" d="M657.8,65.82c.08-8.51.15-17.03.51-25.8.32,7.79.36,15.83.22,24.48-.4.82-.58,1.06-.71,1.33,0,0-.03-.02-.02,0Z"/>
  <path class="cls-13" d="M29.17,6.47c-1.23.76-2.82,2.1-4.49,2.22-4.43.32-8.9.12-13.87.13,1.52-.7,3.51-1.82,5.59-2.02,4.1-.38,8.25-.24,12.77-.34Z"/>
  <path class="cls-17" d="M12.96,296.32c-.22.34-.65.4-.86.45-.22-6.75-.22-13.55-.23-20.83,0-.47.03-.41.03-.41.13-.15.25-.3.62-.62.38,6.91.52,13.99.44,21.41Z"/>
  <path class="cls-11" d="M12.83,144.08c1.04,3.91,2.2,7.97,2.83,12.12.2,1.32-1.04,2.86-1.99,4.48-.89-4.6-1.42-9.38-1.71-14.71.4-.79.55-1.04.68-1.3,0,0,.11-.4.19-.59Z"/>
  <path class="cls-13" d="M10.24,8.58c-1.91.97-4.05,1.83-6.33,2.45,1.94-1.02,4.02-1.78,6.33-2.45Z"/>
  <path class="cls-14" d="M14.78,207.81c-.38,1.81-.75,3.63-1.18,5.85-3.31-1.81-2.4-4.05.28-6.4.56.1.73.32.9.55Z"/>
  <path class="cls-14" d="M13.5,214.4c2.62.78,2.78,2.3.26,4.28-.29-1.2-.25-2.54-.26-4.28Z"/>
  <path class="cls-14" d="M12.9,203.68s-.02.3-.04.45c-.42-.85-.83-1.84-.95-2.81.52.8.76,1.58.99,2.35Z"/>
  <path class="cls-17" d="M660.27,298.83c-.24-1.74-.39-3.76-.33-6.15.21-.36.35.05.16.79-.14,1.83-.09,2.92-.04,4.01.1.36.21.72.22,1.35Z"/>
  <path class="cls-11" d="M14.91,207.56c-.3.02-.48-.2-.82-.55-.27-.58-.39-1.01-.57-1.77.47.47,1,1.27,1.39,2.32Z"/>
  <path class="cls-11" d="M13.06,203.32c-.4-.41-.64-1.19-1.04-2.22.18-.76.53-1.26,1.14-1.96.2,1.14.13,2.48-.09,4.18Z"/>
  <path class="cls-17" d="M12.48,270.89c.25-.11.74-.06.98-.04.04.53-.17,1.04-.55,1.77-.34-.39-.51-1.01-.43-1.73Z"/>
  <path class="cls-3" d="M47.94,647.98c.4-.28.95-.37,1.67-.31-.39.26-.95.38-1.67.31Z"/>
  <path class="cls-3" d="M660.24,297.15c-.24-.76-.29-1.85-.26-3.48.2.69.32,1.92.26,3.48Z"/>
  <path class="cls-17" d="M141.02,1.35c-.9.19-1.98.32-3.38.27-.31-.18.08-.31.86-.18,1.19.11,1.6.09,2.01.06,0,0,.33-.22.51-.16Z"/>
  <path class="cls-3" d="M11.98,123.18c.21.47.33,1.3.3,2.36-.23-.52-.31-1.26-.3-2.36Z"/>
  <path class="cls-3" d="M74.16,647.68c.46-.17,1.29-.26,2.34-.22-.51.19-1.24.24-2.34.22Z"/>
  <path class="cls-17" d="M660.28,272.03c-.5-.88-.92-1.93-1.38-3.42.24-.12.52.18.93,1.26.2,1.06.28,1.35.35,1.64,0,0,.18.34.1.52Z"/>
  <path class="cls-3" d="M11.94,119.14c.23.22.32.76.27,1.46-.23-.27-.32-.71-.27-1.46Z"/>
  <path class="cls-3" d="M658.01,65.82c-.07-.26.11-.5.51-.85.01.19-.15.51-.51.85Z"/>
  <path class="cls-3" d="M184.88,647.04c.21-.14.44.02.77.39.13.17-.36.18-.36.18,0,0-.36-.33-.41-.57Z"/>
  <path class="cls-3" d="M140.23,1.32c-.13.22-.54.24-1.55.25.02-.16.65-.3,1.55-.25Z"/>
  <path class="cls-17" d="M131.53,1.8c.02.1-.2.17-.56.19-.12,0,.33-.17.56-.19Z"/>
  <path class="cls-17" d="M660.27,321.42c-.17.02-.22-.27-.16-.74.07.04.12.24.16.74Z"/>
  <path class="cls-3" d="M11.82,275.5c.08.04.04-.02.07-.04.03-.02-.23-.03-.23-.03,0,0,.08.03.16.07Z"/>
  <path class="cls-3" d="M660.33,271.29c-.23-.07-.3-.36-.44-1.1.15,0,.37.44.44,1.1Z"/>
  <path class="cls-10" d="M9.49,418.75c.11.19-.05.44-.38.86-.05-.14.04-.46.38-.86Z"/>
  <path class="cls-3" d="M12.41,144.77c.1.16-.06.41-.37.82-.28-.2-.18-.49.37-.82Z"/>
  <path class="cls-3" d="M613.53,5.02c.06.26-.16.44-.63.64-.11-.27.08-.51.63-.64Z"/>
  <path class="cls-3" d="M616.51,4.81c-.02.13-.22.19-.32.16s-.01-.34-.01-.34c0,0,.35.05.33.18Z"/>
  <path class="cls-3" d="M658.47,121.55c-.33.02-.38-.23-.15-.62.15.06.2.22.15.62Z"/>
  <path class="cls-17" d="M210.4,1.36c.02.15-.27.2-.72.15.04-.07.23-.12.72-.15Z"/>
  <path class="cls-9" d="M526.64,23.38c-9.92.68-19.97,1.22-30.03,1.36-13.4.18-26.8.06-40.21.06-17.69,0-35.38.07-53.07-.08-5.71-.05-11.42-.77-17.13-1.08-2.95-.16-5.92-.11-8.88-.13-27.91-.18-55.82-.21-83.73-.7-4.61-.08-9.18-2.17-13.93-3.61,3.63.25,7.43.79,11.95,1.66,2.87.51,5.01.84,7.15.84,22.28.04,44.56.03,66.84.04,4.54-.17,9.1-.63,13.62-.44,6.42.27,12.81,1.44,19.22,1.47,36.58.15,73.16.13,109.74,0,4.24-.01,8.46-1.26,12.71-1.44,1.84-.08,3.73,1.11,5.74,2.05Z"/>
  <path class="cls-21" d="M76.87,21.88c-1.7.35-3.4.96-5.12,1.01-5.16.13-10.35-.21-15.49.11-7.34.47-14.66,1.36-22.87,2.16.53,2.6,1.05,4.89,1.44,7.2.2,1.19.33,2.43.19,3.62-.36,2.91-1.71,5.95-1.23,8.68,2.96,16.73,1.08,33.59,1.73,50.37.32,8.24,1.12,16.45,1.7,25.09-.81-1.37-2.25-3.13-2.33-4.95-.83-20.67-1.37-41.35-2.19-62.03-.16-3.91-1.97-7.84-1.68-11.67.31-4.2,1.22-8.12.1-12.51-.98-3.86,1.81-6.6,5.96-6.98,2.97-.27,5.98-.16,9.88-.23,10.58.03,20.25.09,29.91.14Z"/>
  <path class="cls-2" d="M72.08,629.4c2.66-.41,5.33-.8,7.99-1.23.48-.08.98-.47,1.39-.38,10.11,2.23,20.19-.64,30.33-.06,10.43.59,20.92.05,31.38.14,1.13.01,2.26.95,3.56,1.99.17.53.22,1,.22,1-11.13-.38-22.26-1.17-33.38-1.03-12.07.15-24.13,1.24-36.2,1.73-3.63.15-7.28-.36-11.33-.88-.4-.31-.27-.79-.27-.79,1.11-.2,2.21-.4,3.82-.45,1.16.09,1.82.03,2.48-.03Z"/>
  <path class="cls-5" d="M638.49,191.73c-.74-4.52-1.24-9.13-1.5-13.76-.21-3.79-.02-7.61-.2-11.4-.48-10.02.27-19.83,3.21-29.52.96-3.15.12-6.85.03-10.76,4.79,2.62,3.12,7.43,2.09,11.17-3.91,14.27-4.76,28.45-1.85,43.02.7,3.48-.9,7.42-1.78,11.25Z"/>
  <path class="cls-10" d="M638.76,23.21c-2.98.63-6.08.91-9.16,1.22-.63.06-1.25.39-1.87.39-9.66,0-19.32.17-28.97-.13-6.35-.2-12.67-1.09-19.35-1.58.93-.55,2.23-1.77,3.49-1.74,11.5.29,22.99,1.02,34.49,1.13,5.03.05,10.07-1.27,15.13-1.46,2.02-.08,4.09,1.18,6.24,2.18Z"/>
  <path class="cls-18" d="M25.98,529.53c.75,1.65,2.03,3.83,2.05,6.01.14,12.92-.02,25.84-.3,39-.8-1.39-1.87-3.02-1.88-4.66-.08-13.28.03-26.55.13-40.36Z"/>
  <path class="cls-6" d="M638.9,553.15c-.01-2.16-.02-4.31.13-7.03.25-.84.19-1.09-.02-1.3-.05-8.7-.09-17.4-.12-26.57.64.8,1.79,2.08,1.8,3.35.11,17.71.08,35.42.04,53.12,0,.8-.36,1.6-.75,2.74-.2.34-.22.32-.32.15-.24-.41-.42-.62-.63-.79.24-6.78.5-13.56.67-20.34.02-.74-.53-1.5-.79-2.7.02-.45,0-.63,0-.63Z"/>
  <path class="cls-19" d="M31.62,296.04c2.81,7.64-.56,15.37.09,23.21.66,8.07.25,16.24.08,24.36-.04,1.82-1.07,3.61-1.52,5.81-2.29-.34-3.02-1.52-.45-3.97.6-13.81.75-27.12.9-40.42.2-2.95.4-5.89.91-8.99Z"/>
  <path class="cls-18" d="M450.84,630.14c4.51-.71,9-1.71,13.54-2.06,5.12-.4,10.29-.22,15.87-.46-1.48.95-3.34,2.88-5.33,3.04-7.75.63-15.54.69-23.72.78-.39-.56-.37-.93-.35-1.3Z"/>
  <path class="cls-19" d="M32.58,265.34c.06,7.99-.02,16.31-.15,24.63-.01.94-.29,1.87-.32,3.15-.63-1.4-1.99-3.13-2.03-4.89-.09-4.16.33-8.35.77-12.5.36-3.37,1.05-6.71,1.73-10.4Z"/>
  <path class="cls-10" d="M638.82,80.69c-.29-11.31-.25-22.61-.14-33.91.02-1.79.35-3.57.87-5.49.33-.14.37.34.36,1.02-.01,13.26-.02,25.83-.02,38.41-.24,0-.48-.01-1.08-.03Z"/>
  <path class="cls-9" d="M560.82,23.67c-1.11-.24-2.38-.98-3.3-.66-9.62,3.32-19.22,1.99-29.19.23,1.06-.46,2.46-1.5,3.89-1.54,7.9-.25,15.81-.31,23.72-.31,1.51,0,3.03.51,4.73,1.31.19.52.15.98.15.98Z"/>
  <path class="cls-7" d="M365.28,21.55c-21.94.19-44.21.2-66.49.16-2.14,0-4.29-.33-6.82-.68,22.42-.2,45.23-.22,68.05-.2,1.64,0,3.28.35,5.27.73Z"/>
  <path class="cls-13" d="M134.53,18.88c.18.4-.12,1.13-.42,1.13-8.79-.13-17.58-.33-26.64-.8,8.68-.3,17.62-.32,27.06-.33Z"/>
  <path class="cls-13" d="M104.84,18.9c-1.73.74-3.93,1.91-6.22,2.09-6.35.49-12.74.57-19.48.51-.37-.3-.38-.78-.38-.78,2.47-.64,4.92-1.73,7.42-1.83,6.04-.25,12.1-.03,18.66.01Z"/>
  <path class="cls-21" d="M37.07,120.91c.73,1.21,1.83,2.88,1.96,4.62.39,5.12.4,10.28.4,16.03-.38.81-.59,1.02-.79,1.24-.61-1.59-1.7-3.16-1.75-4.76-.16-5.54.04-11.1.17-17.14Z"/>
  <path class="cls-9" d="M274.42,18.78c-7.52.29-15.2.22-23.26.03.89-.73,2.15-1.8,3.44-1.85,5.41-.19,10.83-.17,16.25,0,1.15.03,2.28.96,3.57,1.83Z"/>
  <path class="cls-7" d="M38.68,143.28c.16-.69.37-.9.77-1.23.23.28.28.7.35,1.74.28,1.41.56,2.19.83,2.97.03,3.72.07,7.44-.11,11.72-.32.84-.27,1.1-.06,1.33.09,3.36.19,6.72.16,10.52-.69-1.34-1.7-3.1-1.76-4.9-.21-7.22-.12-14.45-.18-22.14Z"/>
  <path class="cls-7" d="M639.2,385.58c-.29-8.13-.28-16.49-.26-25.33.6.47,1.66,1.41,1.68,2.36.1,7.04,0,14.08-.11,21.12,0,.54-.66,1.07-1.3,1.85Z"/>
  <path class="cls-7" d="M205.88,632.73s.43.08.63.15c-8.62-.07-17.45-.21-26.52-.65,7.5-.35,15.23-.4,23.6-.37.64.08.97.04.97.04,0,0,.14-.07.33.17.42.44.68.59.98.67Z"/>
  <path class="cls-7" d="M450.37,630.09c.45.42.43.79.42,1.44-8.42.08-16.85-.12-25.63-.51-.36-.2-.35-.23-.16-.33.41-.28.6-.49.75-.73,8.06.03,16.11.05,24.63.13Z"/>
  <path class="cls-8" d="M29.47,373.68c-.25,1.19-.51,2.38-1.12,3.76-.43-6.95-.56-14.09-.51-21.22,0-1.13.81-2.25,1.53-3.42.32,6.01.37,12.06.19,18.74-.18,1.13-.13,1.64-.09,2.14Z"/>
  <path class="cls-10" d="M561.01,23.99c-.19-.32-.16-.78-.14-1.01,4.14-.53,8.26-.96,12.39-1.07,1.71-.04,3.43.6,5.47,1.11-5.63.55-11.58.92-17.72.97Z"/>
  <path class="cls-2" d="M148.89,630.17c7.19-.01,14.38-.03,21.82.26.02.32-.2.35-1.2.42-7.39-.19-14.01-.43-20.62-.67Z"/>
  <path class="cls-7" d="M65.43,629.93c.35-.05.21.43.2.68-3.78.57-7.53,1.08-11.3,1.16-6.64.15-13.28.12-19.92-.02-1.73-.04-3.44-.74-5.42-1.41.22-.28.7-.29,1.89-.06,11.42.13,22.12,0,32.82-.11.46-.07.92-.14,1.72-.26Z"/>
  <path class="cls-7" d="M30.52,305.37c.04,12.97-.11,26.27-.43,39.93-.04-12.96.1-26.28.43-39.93Z"/>
  <path class="cls-7" d="M640.07,80.37c-.18-12.22-.17-24.79-.15-37.81.3,3.47.83,7.38.82,11.29-.02,8.72-.31,17.44-.67,26.52Z"/>
  <path class="cls-10" d="M640.55,40.87c-.77-5.02-1.27-10.13-1.65-15.62,1.07,4.61,2.03,9.6,2.91,14.6.04.25-.65.62-1.26,1.02Z"/>
  <path class="cls-17" d="M276.62,635.81h-22.36c0-.21,0-.41-.01-.62h29.08c.03.21.05.41.08.62h-6.79Z"/>
  <path class="cls-7" d="M78.3,20.74c.47-.02.48.46.47.7-.43.28-.84.33-1.58.41-9.98-.02-19.64-.07-29.75-.12,4.75-.31,9.94-.73,15.13-.9,5.08-.16,10.17-.06,15.72-.09Z"/>
  <path class="cls-17" d="M505.18,8.81c5.43-.33,11.33-.72,17.23-.98,3.14-.14,6.29-.07,9.9-.14-1.02.34-2.5,1.04-3.99,1.06-7.55.11-15.11.05-23.15.05Z"/>
  <path class="cls-8" d="M148.54,630.1c6.96.31,13.58.55,20.64.78-6.88.12-14.21.24-21.88.17-.34-.2-.38-.67-.46-.89.4-.19.87-.16,1.7-.06Z"/>
  <path class="cls-9" d="M277.68,18.93c-.68.25-1.82.49-3.07.43.79-.35,1.7-.39,3.07-.43Z"/>
  <path class="cls-1" d="M596.09,626.65c.31-.28,1.05-.58,1.95-.66-.4.36-.96.5-1.95.66Z"/>
  <path class="cls-1" d="M624.74,626.28c.37-.14,1.15-.13,2.05.11-.47.17-1.05.11-2.05-.11Z"/>
  <path class="cls-4" d="M542,629.03c.25-.14.68-.18,1.43-.16-.2.12-.72.19-1.43.16Z"/>
  <path class="cls-4" d="M549.44,628.48c-.24.11-.5.2-.77.29.13-.06.26-.12.54-.27.15-.09.2-.05.22-.02Z"/>
  <path class="cls-8" d="M173.04,630.91c.36-.02.97.14,1.71.58-.4.06-.93-.18-1.71-.58Z"/>
  <path class="cls-19" d="M32.11,293.87c.15.32.22,1.04.03,1.92-.21-.4-.16-.96-.03-1.92Z"/>
  <path class="cls-4" d="M553.76,628.44c.03-.11.21-.2.69-.3.06.21-.22.32-.69.3Z"/>
  <path class="cls-8" d="M171.98,630.77c.02-.11.32-.22.75-.17-.07.17-.27.16-.75.17Z"/>
  <path class="cls-4" d="M518.74,628.44c.06-.12.3-.17.91-.16,0,.12-.37.17-.91.16Z"/>
  <path class="cls-6" d="M639.79,578.55c-.3.09-.59-.07-.66-.48.23-.26.64-.27.64-.27,0,0,.02.01.02.02,0,0,0,.5,0,.74Z"/>
  <path class="cls-4" d="M544.85,628.56c.01-.13.21-.39.66-.67.02.18-.22.37-.66.67Z"/>
  <path class="cls-4" d="M508.58,628.41c.06-.08.33-.12,1-.07,0,.09-.4.11-1,.07Z"/>
  <path class="cls-11" d="M302.71,539.82c-18.81-.97-37.08-6.78-55.21-11.53-16.11-4.35-32.88-7.15-47.52-15.56-6.6-3.61-12.8-7.93-19.5-11.36-8.9-4.69-18.61-7.89-27.38-12.83-5.66-3.19-10.67-7.36-15.85-11.48-9.52-6.64-14.67-16.91-19.51-27.11-8.49-14.85-14.67-26.94-16.32-44.2-3.32-12.98-5.46-25.98-4.61-39.42.71-11.82.38-23.94,1.5-35.8,1.21-8.22,3.61-16.36,5.5-24.48,1.58-6.13,4.91-11.49,8.44-16.67,4.98-7.73,9.79-15.77,14.48-23.74,6.68-11.07-6.72-20.35-16.9-18.3-8.36,1.09-16.27,4.32-23.77,8.05-3.29,1.55-6.86,3.33-9.82,3.4-4.98.6-7.02-5.05-5.27-9.28,3.08-8.07,11.39-15.58,18.27-21.11,7.83-5.03,17.99-4.49,26.8-2.68,6.17,1.53,12.17,4.46,17.39,7.9,4.47,2.76,7.13,6.73,11.67,6.47,12.83-4.66,15.92-44.88-9.66-41.3-8.73.18-19.22,4.43-27.46,2.32-6.03-1.71-6.76-10.46-2.28-14.43,3.1-3.03,7.6-4.29,11.76-5.29,9.45-2.28,19.33-4.85,28.82-1.72,11.51,3.53,21.03,11.29,27.85,21.01,6.07,8.48,13.19-.58,18.49-4.81,5.7-5.12,11.97-9.18,17.84-13.96,7.02-5.98,14.11-11.82,21.63-17.21,5.18-3.87,11.06-6.85,15.83-11.24,3.33-2.99,5.99-6.72,9.2-9.75,4.22-4.03,9.38-7.04,13.95-10.97,6.61-5.61,12.66-12.18,19.8-16.98,5.05-3.43,10.53-6.14,15.77-9.26,15.34-9.43,35-12.88,52.63-9.31,15.91,3.5,19.8,21.47,24.14,34.91,3.34,12.94,1.52,26.57.6,39.71-.58,4.92-.52,11.17,5.85,7.33,17.99-11.71,36.42-23.18,56.14-31.81,12.03-5.77,24.21-12.31,37.86-12.52,39.05-1.61,34.89,35.68,36.36,63.53,1.17,10.2.02,20.26-1.57,30.32-.59,6.99.01,13.69-1.01,20.56-1.73,11.56-4.43,23.79-2.56,35.4,1.25,6.56,6.2,11.74,9.25,18.03,7.12,17.52,16.29,4.47,31.04,6.16,9.15.23,18.67,1.63,26.11,7.04,6.09,4.45,13.22,10.07,15.84,16.69,2.99,6.79.65,19.2-8.45,18.11-7.83-1.75-9.61-15.06-18.09-19.2-10.94-7.99-31.52-4.25-31.85,11.09-.19,4.63.91,9.4,1.54,14.02,1.06,6.55,1.5,12.96,8.92,12.27,17.19-2.77,38.98-2.46,49.85,13.32,4.84,7.11,12.81,24.42,6.07,31.1-10.95,5.97-17.29-16.02-25.39-20.49-14.31-9.94-33.81-7.4-39.94,10.34-1.82,7.55-1.62,16.12-4.38,23.65-8.8,27.97-22.15,54.61-41.48,76.84-9.06,10.21-21.61,16.04-33.16,22.9-6.22,3.46-13.13,5.01-19.98,7.01-7.22,2.19-14.47,4.37-21.89,5.82-14.37,2.86-29.04,2.9-43.6,3.68-7.52.35-14.82-1.72-22.22-1.94-3.77-.03-7.57.5-11.35.43-6.54,0-13.09-1.74-19.81-1.85-6.4-.13-12.82.42-19.21.18M244.32,463.01c-.21-1.31-.64-2.51-.94-3.83-.62-2.54-.54-5.7-2.2-8.6-1.25-2.33-3.17-4.27-5.25-5.87-2.62-1.96-5.13-3.98-7.22-6.45-1.88-2.07-3.5-4.43-5.83-6.04-2.87-1.86-6.55-2.38-8.35-.67-1.64,2.08.6,4.89,1.76,6.8,2.57,3.77,5.21,7.73,8.86,10.34,2.39,1.83,5.35,3.25,7.24,5.58,2.59,3.08,1.85,7.96,4.6,10.95,2.74,2.63,8.28,2.03,7.34-2.11M307.57,374.35c9.94-9.15,7.98-26.39-.18-35.94-4.44-5.17-10.73-8.08-16.45-11.58-6-3.55-12.04-7.9-19.17-8.58-19.16-1.85-33.26,19.56-24.8,36.64,2.97,6.59,7.35,12.2,13.9,15.17,10.25,4.43,20.71,9.24,32.05,8.96,5.36.06,10.7-.98,14.51-4.53M384.53,303.66c4.52-7.76,1.18-16.48-8.83-12.48-4.09,1.61-4.54,6.5-2.75,10.08,2.06,4.96,8.02,8.43,11.47,2.59M252.63,268.62c3.94.55,8.55-1.38,8.8-5.86.19-3.11-1.05-6.75-3.88-8.35-3.58-2.05-9.8-.18-11.88,3.98-2.77,4.96,1.55,9.92,6.73,10.2l.24.03Z"/>
  <path class="cls-3" d="M588.39,54.62s-.36-.1-.66-.62c-1.11-1.02-1.9-1.89-2.75-1.97-9.42-.79-18.84-1.47-28.27-2.12-.96-.07-1.94.37-2.92.45-5.21.46-10.43,1.15-15.65,1.15-1.4,0-3.78-2-3.98-3.35-.29-1.92.79-4.18,1.7-6.1.64-1.35,1.96-2.37,2.97-3.53.1-.15.21-.3.87-.22,4.57,1,8.57,1.86,12.61,2.44.36.05.97-1.72,1.47-2.64,6.79.16,13.58.57,20.36.44,11.01-.21,22.01-.94,33.03-1.08,3.5-.04,7.01,1.09,10.51,1.75.43.08.81.55,1.16.89,2.27,2.12,4.41,13.9,3.28,16.83-.73,1.92-1.4,4-1.43,6.02-.15,9.77.25,19.56-.2,29.31-.26,5.6-.94,11.45-2.88,16.64-2.48,6.61-1.33,12.48.85,18.59,1.64,4.61-.77,8.48-3.8,10.95-1.7,1.38-5.93.97-8.32-.13-3.69-1.71-3.87-5.04-3.02-9.29.91-4.55-.36-9.53-.37-14.76.78-1.02,1.66-1.59,1.66-2.18.1-6.71.15-13.42-.04-20.12-.03-1.01-1.35-1.99-2.07-2.98,0,0,.09.01.11-.38,0-1.26,0-2.13-.02-3,0,0,.01.08.29-.06,1.27-2.51,3.09-4.89,3.08-7.26-.01-6.37-.52-12.77-1.44-19.07-.31-2.1-2.32-5.43-3.82-5.59-4.03-.42-8.21.58-12.32,1.01Z"/>
  <path class="cls-15" d="M568.67,595.53c.08-.17.16-.35.51-.79.27-.27.5-.62.5-.62,1.11-.23,2.2-.55,3.32-.67,5.99-.65,11.98-1.32,17.98-1.8,1.4-.11,2.87.74,4.28.66,3.3-.19,6.6-.55,9.84-1.17.45-.09.85-2.04.76-3.09-.48-5.63-1.65-11.26-1.57-16.87.12-8.54.7-17.12,1.9-25.57.32-2.25,3.3-4.54,5.58-6.01,3.95-2.54,5.8,1.1,7.89,4.15.98,5.02,1.98,9.38,2.99,13.74,0,0-.01.19-.45.33-1.09,2.06-2.26,3.96-2.29,5.89-.19,10.44-.09,20.88-.09,31.32,0,3.59-.03,7.19-.04,10.78-.11.18-.22.36-.77.75-.7.22-.96.23-1.24.23-.02-.02,0,.03,0,.28,0,.24,0,.73,0,.73-.47.64-.95,1.27-1.87,1.69-2.82-.02-5.18.29-7.55.36-12.59.37-25.17.76-37.76.98-6.42.11-13.4,1.46-17.31-5.93,0,0-.11-.02.03-.49,1.42-1.81,2.69-3.15,3.96-4.49,1.14-1.2,2.28-2.41,3.41-3.61.18-.12.36-.25,1.09-.15,2.95,2.12,5.13,2.35,6.89-.61Z"/>
  <path class="cls-16" d="M42.97,561.81c-.01-2.39-.1-4.78-.02-7.17.15-4.43-2.25-9.13,1.67-13.15,3.57-3.67,5.48-3.42,7.2,1.52,2.9,8.32,4.27,16.89,3.53,25.74-.24,2.92-.15,5.87-.43,8.78-.21,2.15-1.05,4.26-1.12,6.41-.17,5.49-.06,10.98-.06,15.89,5.71-.33,10.79-.12,15.65-1.02,9.04-1.67,17.75.26,26.6,1.24,3.28.36,6.77-1.32,10.05-.97,2.83.3,5.5,2.16,8.2,3.9-.54,2.28-.86,4.07-1.57,5.69-.61,1.38-1.58,3.59-2.54,3.67-4.81.41-9.69.59-14.49.19-4.75-.4-9.43-2.31-14.14-2.27-8.23.07-16.71.07-24.6,2.03-10.09,2.5-10.07,3.37-12.43-6.78-2.93-12.57-2.58-25.21-.21-37.87.34-1.8-.84-3.88-1.32-5.83Z"/>
  <path class="cls-21" d="M49.75,62.9c-2.31-6.7-.32-12.88,2.76-18.9,5.83.49,11.16.9,16.5,1.27.48.03.98-.11,1.47-.17,9.15-1.1,18.28-2.48,27.46-3.2,6.45-.5,12.97-.13,19.47-.1,7.9.04,9.69,2.23,7.99,10.03-.77-.09-1.21-.14-1.87-.48-5.59-.71-10.96-1.27-16.34-1.43-1.43-.04-2.89,1.13-4.6,1.84-.72.41-1.18.73-2.11,1.04-12.14,0-23.79.01-35.45,0-2.81,0-5.75.19-5.91,3.8-.28,6.13-.44,12.3,0,18.4.11,1.49,2.76,2.8,4.24,4.2,0,0,.11.03-.02.44-.24.91-.36,1.4-.67,2.27-.42,10.57-.64,20.76-.98,31.28-.04,2.48.41,4.7,0,6.74-.39,1.98-1.22,4.89-2.64,5.46-3.24,1.3-4.55-1.63-5.45-4.24-.38-1.08-.65-2.25-.71-3.39-.39-6.94-.71-13.89-1.06-21.32.04-11.22.08-21.96.32-32.8.23-.72.26-1.33.29-1.95-.56.41-1.12.81-1.92,1.23-.25.02-.74-.04-.74-.04Z"/>
  <path class="cls-16" d="M78.95,89.77c-2.2-8.93.44-15.5,7.5-18.87,6.27-2.99,11.12,1.11,15.98,3.72,3.96,2.13,6.58,12.98,5.04,17.01-2.08,5.47-11.87,7.81-16.53,7.07-2.08-.33-4.61-.26-6.08-1.44-2.35-1.9-3.98-4.69-5.91-7.49Z"/>
  <path class="cls-3" d="M88.78,580.8c-2.62,0-4.83-.04-7.05.03-3.52.12-6.11-.62-6.49-4.92-.16-1.85-1.77-3.54-2.09-5.41-.43-2.49-.46-5.1-.25-7.63.22-2.56.44-5.32,1.55-7.55,2.3-4.61,6.95-3.24,10.97-3.76,6.61-.85,10.82,1.7,12.97,7.79.56,1.58,1.05,3.55.6,5.05-1.87,6.25-.66,14.49-10.22,16.39Z"/>
  <path class="cls-19" d="M588.05,565.63c-2.66,9.51-9.64,10.68-17.66,9.77-1.01-.11-2.23-.54-2.9-1.25-6.58-7.02-3.8-21.35,1.78-26.6.77-.72,1.96-1.24,3.02-1.38,5.79-.77,11.36,3.69,14.06,8.79,1.89,3.57,1.17,6.87,1.7,10.67Z"/>
  <path class="cls-20" d="M581.15,82.2c.2,7.72-2.49,13.18-10.34,14.72-1.07.21-2.51-.22-3.46-.84-9.54-6.27-9.84-3.74-7.3-16.24.78-3.82,1.65-7.07,5.07-7.55,4.03-.56,8.42.15,12.45,1.13,4.42,1.08,2.51,5.47,3.58,8.78Z"/>
  <path class="cls-10" d="M42.81,562.17c.63,1.58,1.81,3.66,1.47,5.46-2.37,12.66-2.72,25.3.21,37.87,2.36,10.14,2.34,9.28,12.43,6.78,7.9-1.96,16.37-1.96,24.6-2.03,4.7-.04,9.39,1.87,14.14,2.27,4.8.4,9.69.23,14.49-.19.96-.08,1.93-2.29,2.54-3.67.71-1.62,1.03-3.4,1.76-5.39,2,5.71.93,9.69-2.99,11.52-.72.33-1.57.61-2.34.56-7.7-.51-15.41-.98-23.1-1.68-4.85-.44-9.75-2.13-14.48-1.68-6.56.61-13.11,2.3-19.43,4.28-4.47,1.4-9.16-.59-9.47-5.45-.78-12.19-1.46-24.4-1.76-36.61-.09-3.87,1.15-7.77,1.93-12.02Z"/>
  <path class="cls-10" d="M125.72,51.89c1.37-7.85-.41-10.04-8.32-10.08-6.49-.03-13.01-.41-19.47.1-9.18.72-18.31,2.1-27.46,3.2-.49.06-.99.21-1.47.17-5.33-.38-10.67-.78-16.14-1.41,1.55-1.13,3.23-2.77,4.95-2.82,8.9-.28,17.81.07,26.71-.25,5.53-.2,11.02-1.34,16.55-1.75,3.57-.27,7.17,0,10.76.05,4.51.07,8.91-1.61,13.53,1.28,3.15,1.97,4.8,4.52,4.05,7.2-.94,3.35-2.53,7.66-7.9,5.82,1.4-.71,2.81-1.11,4.22-1.51Z"/>
  <path class="cls-10" d="M63.15,78.81c-1.31-1-3.96-2.31-4.07-3.8-.44-6.1-.28-12.27,0-18.4.17-3.6,3.1-3.8,5.91-3.8,11.66,0,23.32,0,35.45.33.45.55.43.77.4,1-1.24.51-2.48,1.46-3.73,1.47-11.86.11-23.73.07-35.21.07.37,7.9.71,15.32,1.23,23.14Z"/>
  <path class="cls-12" d="M98.44,330.02c.24,7.99.2,16.18.04,24.38-.05,2.3-.66,4.59-.66,6.89,0,12.4-.93,24.88,2.7,37.45-1.56-3.33-4.3-7.01-4.53-10.84-.64-10.47-.4-21-.16-31.51.17-7.32.87-14.62,1.41-21.92.11-1.43.57-2.83,1.19-4.44Z"/>
  <path class="cls-5" d="M553.29,605.21c3.91,7.05,10.88,5.7,17.31,5.59,12.59-.22,25.18-.61,37.76-.98,2.37-.07,4.73-.38,7.25-.34-5.81,1.54-11.73,3.65-17.75,3.96-11.6.6-23.26.22-34.89.16-5.86-.03-9.37-3.05-9.69-8.4Z"/>
  <path class="cls-14" d="M538.59,38.64c-.77,1.06-2.09,2.08-2.72,3.43-.91,1.92-1.99,4.18-1.7,6.1.2,1.35,2.58,3.35,3.98,3.35,5.22,0,10.43-.69,15.65-1.15.98-.09,1.96-.52,2.92-.45,9.43.65,18.85,1.33,28.27,2.12.85.07,1.64.94,2.65,1.8-6.48.25-13.15.24-19.81-.02-2.39-.09-4.75-.78-7.14-1.14-1.77-.27-3.59-.75-5.34-.6-5.3.44-10.56,1.39-15.87,1.68-5.36.29-7.8-2.08-8.03-6.92-.29-6.27.74-7.48,7.13-8.2Z"/>
  <path class="cls-10" d="M51.8,96.95c.35,6.95.67,13.89,1.06,20.84.06,1.14.34,2.31.71,3.39.9,2.61,2.21,5.54,5.45,4.24,1.41-.57,2.25-3.48,2.64-5.46.41-2.05-.04-4.26.25-6.63.86,0,1.35.22,1.97.7.38.76.63,1.26.89,1.76.21.51.42,1.02.5,1.88-.29.93-.46,1.51-.62,2.09-.18,7.74-1.64,9.38-8.3,8.51-1.53-.2-3.64-1.44-4.2-2.74-3.85-9.07-1.83-18.81-2.17-28.46,1.04-.19,1.43-.15,1.81-.1Z"/>
  <path class="cls-5" d="M620.03,605.67c-.24-3.46-.21-7.06-.21-10.65,0-10.44-.09-20.88.09-31.32.03-1.93,1.21-3.84,2.2-5.88.36,6.68,1.07,13.59.16,20.28-.68,5.02-.42,9.69,0,14.64.35,4.18-1.25,8.53-2.24,12.94Z"/>
  <path class="cls-14" d="M588.54,54.84c3.97-.66,8.15-1.66,12.18-1.24,1.5.16,3.51,3.49,3.82,5.59.92,6.3,1.43,12.71,1.44,19.07,0,2.37-1.81,4.75-3.12,7.26-.32-9.67-.32-19.49-.32-29.37-5.16-.4-9.51-.75-14-1.31Z"/>
  <path class="cls-4" d="M63.76,113.76c-.5-.22-.99-.45-1.74-.78-.02-10.3.2-20.48.78-30.89.7.07,1.04.36,1.38.65.09,1.35.17,2.69.24,4.52-.02.48-.02.44-.02.44-.02,8.11-.04,16.21-.2,24.89-.28.76-.38.96-.44,1.18Z"/>
  <path class="cls-14" d="M602.48,89.32c.75.63,2.07,1.61,2.1,2.62.19,6.7.13,13.41.04,20.12,0,.59-.89,1.16-1.66,1.75-.37-8.04-.44-16.08-.48-24.49Z"/>
  <path class="cls-17" d="M51.81,96.46c-.39.44-.78.4-1.46.37-.34-11-.39-22.01-.52-33.48-.08-.45.41-.39.87-.29.73.29.98.48,1.22.7-.04,10.74-.07,21.48-.11,32.7Z"/>
  <path class="cls-2" d="M63.34,630.02c-10.33.28-21.03.4-32.1.33,10.33-.28,21.03-.39,32.1-.33Z"/>
  <path class="cls-6" d="M340.91,542.25c2.95-.89,6.07-1.75,9.24-2,3.4-.26,6.86-.13,10.25.25,1.44.16,2.76,1.36,4.19,2.39-7.79.09-15.64-.13-23.68-.64Z"/>
  <path class="cls-8" d="M303.29,539.67c7.98-.33,16.27-.6,25.03-.58.49.63.51.99.52,1.35-2.76.06-5.52.11-8.81,0-.74-.23-.94-.2-1.12-.07-4.17.05-8.33.1-13.04-.14-.69-.37-.85-.42-1.01-.44-.42-.01-.85-.03-1.58-.11Z"/>
  <path class="cls-7" d="M101.3,53.98c-.42-.07-.39-.29-.37-.84.46-.65.91-.97,2.1-1.35,7.39-.09,14.04-.11,20.7-.14.44.04.88.09,1.66.18-1.08.45-2.49.85-4.17,1.41-6.67.3-13.07.45-19.92.74Z"/>
  <path class="cls-5" d="M622.99,557.29c-1.34-4.18-2.35-8.54-3.23-13.21,3.32,3.6,3.46,8.31,3.23,13.21Z"/>
  <path class="cls-14" d="M553.45,38.24c-.15.79-.77,2.56-1.13,2.51-4.04-.58-8.04-1.43-12.36-2.53,4.18-.16,8.66,0,13.48.02Z"/>
  <path class="cls-5" d="M560.39,596.44c-.83,1.05-1.96,2.25-3.1,3.45-1.27,1.34-2.54,2.68-3.95,4.43-2.05-2.46.02-6.54,3.89-7.42.93-.21,1.9-.21,3.17-.47Z"/>
  <path class="cls-6" d="M329.08,540.74c-.26-.66-.27-1.02-.29-1.64,2.84.63,5.68,1.53,8.8,2.66-2.57-.09-5.42-.4-8.51-1.02Z"/>
  <path class="cls-12" d="M100.51,399.4c3.96,1.64,1.68,5.42,2.26,8.86-.71-2.53-1.42-5.49-2.26-8.86Z"/>
  <path class="cls-5" d="M568.29,595.45c-1.37,3.04-3.55,2.81-6.19.59,1.77-.44,3.79-.56,6.19-.59Z"/>
  <path class="cls-10" d="M64.33,82.45c-.49,0-.83-.29-1.33-.75-.04-.65.07-1.14.3-1.99.47.57.82,1.51,1.03,2.74Z"/>
  <path class="cls-21" d="M63.89,114.02c-.06-.47.04-.67.3-.97.47.74.82,1.59.88,2.58-.55-.36-.8-.86-1.18-1.61Z"/>
  <path class="cls-21" d="M64.95,119.64c-.13-.48.04-1.06.4-1.72.1.49,0,1.05-.4,1.72Z"/>
  <path class="cls-14" d="M602.37,85.76c.25.7.26,1.57.25,2.87-.03.43-.46.33-.78.06-.48-.47-.67-.65-.88-.81.39-.65.78-1.3,1.41-2.12Z"/>
  <path class="cls-3" d="M40.8,146.58c-.45-.6-.72-1.38-.97-2.48.4.56.77,1.43.97,2.48Z"/>
  <path class="cls-3" d="M71.85,629.18c-.43.27-1.09.33-1.87.19.47-.27,1.05-.34,1.87-.19Z"/>
  <path class="cls-18" d="M425.62,629.81c-.03.39-.22.6-.62.89.05-.27.28-.65.62-.89Z"/>
  <path class="cls-5" d="M617.99,607.73c-.21.05-.22-.44-.21-.68,0-.25,0-.25,0-.25.26-.02.52-.03.98-.04-.06.31-.31.62-.77.98Z"/>
  <path class="cls-3" d="M29.56,373.38c-.14-.2-.18-.71-.1-1.38.15.25.17.66.1,1.38Z"/>
  <path class="cls-10" d="M64.46,87.65c-.06.05-.06.09-.08.12s.14-.16.08-.12Z"/>
  <path class="cls-3" d="M600.94,88.13c.23-.09.42.09.72.45-.16.04-.45-.08-.72-.45Z"/>
  <path class="cls-3" d="M204.54,631.74c.03.15-.3.19-.46.15s.04-.41.04-.41c0,0,.39.11.42.26Z"/>
  <path class="cls-3" d="M205.77,632.5c-.19.15-.45,0-.84-.37.22-.28.51-.18.84.37Z"/>
  <path class="cls-3" d="M639.66,577.61c.1.18-.31.19-.52.19-.24-.17-.27-.34-.21-.74.31-.07.49.14.73.55Z"/>
  <path class="cls-6" d="M304.95,539.92c.09-.11.25-.06.51.08.11.06-.17.2-.17.2,0,0-.27-.14-.34-.28Z"/>
  <path class="cls-6" d="M319.11,540.46c-.01-.22.18-.25.48-.14.09.05-.29.23-.48.14Z"/>
  <path class="cls-3" d="M40.53,159.56c-.29.02-.33-.24-.12-.63.13.06.16.23.12.63Z"/>
  <path class="cls-3" d="M638.93,545.06c.29-.03.35.21.19.6-.14-.05-.21-.21-.19-.6Z"/>
  <path class="cls-3" d="M638.78,553.1c.13.05.16.24.13.32-.03.09-.37-.05-.37-.05,0,0,.11-.33.24-.28Z"/>
  <path class="cls-5" d="M569.54,594.11c.14,0-.09.36-.19.4-.1.04-.17-.23-.17-.23,0,0,.21-.18.36-.17Z"/>
  <path class="cls-5" d="M617.78,606.81s-.03-.06-.01-.03.02.03.01.03Z"/>
  <path class="cls-10" d="M123.52,51.36c-6.44.32-13.1.34-20.22.34.99-.64,2.45-1.81,3.88-1.77,5.38.16,10.75.72,16.34,1.43Z"/>
  <path class="cls-10" d="M52.13,63.66c-.44-.11-.7-.31-1.18-.61.35-.53.9-.93,1.46-1.34-.03.61-.05,1.23-.29,1.95Z"/>
</svg>