<?xml version="1.0" encoding="utf-8"?>
<svg version="1.1" xmlns="http://www.w3.org/2000/svg"
  viewBox="1534 194 139 127" xml:space="preserve">
<style type="text/css">
  path { fill: #c8392b; }
</style>
<g id="lightbulb_2_">
	<g>
		<g>
			<path d="M1595.37,213.51c0,4.16,0.69,8.29,0.65,12.45c-0.04,3.93-0.19,7.9-0.73,11.8c-0.99,7.02-2.81,14.44-6.86,20.38
				c-1.18,1.72-2.64,3.28-4.22,4.63c-1.22,1.05-3.16,2.74-4.92,2.51c-2.57-0.34-3.37-3.95-3.04-6.02c0.57-3.49,3.15-6.12,5.77-8.28
				c5.77-4.74,12.78-7.48,20.2-8.11c3.96-0.34,7.78,0.11,11.66,0.93c3.41,0.72,6.86,1.72,9.93,3.41c2.86,1.57,5.18,3.86,5.33,7.28
				c0.14,3.06-0.89,6.58-2.62,9.1c-1.8,2.63-5.06,4.17-8.17,2.85c-1.56-0.66-2.64-2.03-3.63-3.36c-1.09-1.47-2.17-2.97-3.2-4.49
				c-4.51-6.65-5.17-15.52-5.69-23.31c-0.29-4.3-0.65-8.6-0.51-12.91c0.15-4.54,0.6-9.07,0.66-13.61c0.01-1.19-2.89-0.59-2.9,0.36
				c-0.05,4.63-0.53,9.23-0.66,13.86c-0.13,4.23,0.21,8.44,0.49,12.65c0.51,7.81,1.13,16.6,5.45,23.38c1.1,1.73,2.34,3.38,3.55,5.03
				c1.12,1.52,2.37,3.03,4.14,3.8c3.15,1.37,7.27,0.71,10.1-1.15c2.84-1.87,4.49-4.98,5.32-8.2c0.88-3.41,0.98-7.07-1.53-9.82
				c-2.34-2.56-5.77-3.98-8.99-5.04c-4.12-1.35-8.57-2.32-12.91-2.52c-8.4-0.4-16.99,1.83-24.09,6.34c-3.2,2.03-6.53,4.49-8.69,7.66
				c-1.92,2.82-2.87,6.6-0.87,9.63c3.15,4.78,9.64,0.8,12.68-1.96c4.75-4.3,7.77-10.38,9.33-16.54c2.2-8.7,3.06-17.73,2.3-26.69
				c-0.19-2.27-0.41-4.54-0.41-6.83C1598.27,211.84,1595.37,212.39,1595.37,213.51L1595.37,213.51z"/>
		</g>
	</g>
	<g>
		<g>
			<path d="M1593.59,219.62c-2.7-0.3-5.3-0.35-7.94,0.36c-2.73,0.73-5.38,1.9-7.97,3.03c-4.99,2.18-9.36,5-13.39,8.66
				c-3.76,3.41-7.21,7.08-9.87,11.43c-2.66,4.34-4.52,9.16-5.64,14.12c-2.13,9.43-1.56,19.31,3.39,27.77
				c4.4,7.52,11.4,13.27,19.04,17.3c17.43,9.19,39.26,10.27,57.66,3.44c9.15-3.4,17.92-8.92,23.73-16.89
				c6.35-8.7,7.2-20.4,5.04-30.67c-1.06-5.04-2.89-9.79-5.73-14.1c-2.78-4.22-6.35-7.91-10.3-11.04c-3.91-3.11-8.22-5.7-12.71-7.89
				c-4.47-2.18-9.38-4.64-14.47-4.53c-2.1,0.04-4.48,0.33-6.13,1.75c-0.48,0.41-0.29,0.87,0.27,1.02c0.65,0.18,1.55-0.12,2.05-0.55
				c0.65-0.56,1.87-0.56,2.68-0.59c1.34-0.04,2.67,0.15,3.97,0.48c2.37,0.59,4.65,1.66,6.87,2.67c4.22,1.9,8.33,4.11,12.12,6.78
				c7.64,5.37,14.17,12.68,17.13,21.66c3.09,9.41,3.58,20.64-0.5,29.84c-3.77,8.5-11.8,14.74-20,18.67
				c-16.86,8.08-37.36,8-54.53,0.83c-7.42-3.1-14.37-7.69-19.61-13.85c-5.55-6.53-8.46-14.53-8.26-23.11
				c0.23-9.68,3.42-19.41,9.39-27.07c2.96-3.79,6.6-7.21,10.4-10.13c4.1-3.16,9.08-5.27,13.92-7.02c2.54-0.92,4.93-1.1,7.61-0.81
				c0.69,0.08,1.53-0.04,2.05-0.55C1594.25,220.26,1594.24,219.69,1593.59,219.62L1593.59,219.62z"/>
		</g>
	</g>
</g>
</svg>