<?xml version="1.0" encoding="utf-8"?>
<svg version="1.1" xmlns="http://www.w3.org/2000/svg"
  viewBox="1530 377 143 312" xml:space="preserve">
<style>path { fill: #3c3a51; }</style>
<g id="lightbulb">
    <path d="M1577.78,402.22c0,4.16.69,8.29.65,12.45-.04,3.93-.19,7.9-.73,11.8-.99,7.02-2.81,14.44-6.86,20.38-1.18,1.72-2.64,3.28-4.22,4.63-1.22,1.05-3.16,2.74-4.92,2.51-2.57-.34-3.37-3.95-3.04-6.02.57-3.49,3.15-6.12,5.77-8.28,5.77-4.74,12.78-7.48,20.2-8.11,3.96-.34,7.78.11,11.66.93,3.41.72,6.86,1.72,9.93,3.41,2.86,1.57,5.18,3.86,5.33,7.28.14,3.06-.89,6.58-2.62,9.1s-5.06,4.17-8.17,2.85c-1.56-.66-2.64-2.03-3.63-3.36-1.09-1.47-2.17-2.97-3.2-4.49-4.51-6.65-5.17-15.52-5.69-23.31-.29-4.3-.65-8.6-.51-12.91.15-4.54.6-9.07.66-13.61.01-1.19-2.89-.59-2.9.36-.05,4.63-.53,9.23-.66,13.86-.13,4.23.21,8.44.49,12.65.51,7.81,1.13,16.6,5.45,23.38,1.1,1.73,2.34,3.38,3.55,5.03,1.12,1.52,2.37,3.03,4.14,3.8,3.15,1.37,7.27.71,10.1-1.15s4.49-4.98,5.32-8.2c.88-3.41.98-7.07-1.53-9.82-2.34-2.56-5.77-3.98-8.99-5.04-4.12-1.35-8.57-2.32-12.91-2.52-8.4-.4-16.99,1.83-24.09,6.34-3.2,2.03-6.53,4.49-8.69,7.66-1.92,2.82-2.87,6.6-.87,9.63,3.15,4.78,9.64.8,12.68-1.96,4.75-4.3,7.77-10.38,9.33-16.54,2.2-8.7,3.06-17.73,2.3-26.69-.19-2.27-.41-4.54-.41-6.83,0-.89-2.9-.35-2.9.78h0Z"/>
    <path d="M1576,408.33c-2.7-.3-5.3-.35-7.94.36s-5.38,1.9-7.97,3.03c-4.99,2.18-9.36,5-13.39,8.66-3.76,3.41-7.21,7.08-9.87,11.43s-4.52,9.16-5.64,14.12c-2.13,9.43-1.56,19.31,3.39,27.77,4.4,7.52,11.4,13.27,19.04,17.3,17.43,9.19,39.26,10.27,57.66,3.44,9.15-3.4,17.92-8.92,23.73-16.89,6.35-8.7,7.2-20.4,5.04-30.67-1.06-5.04-2.89-9.79-5.73-14.1s-6.35-7.91-10.3-11.04-8.22-5.7-12.71-7.89-9.38-4.64-14.47-4.53c-2.1.04-4.48.33-6.13,1.75-.48.41-.29.87.27,1.02.65.18,1.55-.12,2.05-.55.65-.56,1.87-.56,2.68-.59,1.34-.04,2.67.15,3.97.48,2.37.59,4.65,1.66,6.87,2.67,4.22,1.9,8.33,4.11,12.12,6.78,7.64,5.37,14.17,12.68,17.13,21.66s3.58,20.64-.5,29.84c-3.77,8.5-11.8,14.74-20,18.67-16.86,8.08-37.36,8-54.53.83-7.42-3.1-14.37-7.69-19.61-13.85-5.55-6.53-8.46-14.53-8.26-23.11.23-9.68,3.42-19.41,9.39-27.07,2.96-3.79,6.6-7.21,10.4-10.13,4.1-3.16,9.08-5.27,13.92-7.02,2.54-.92,4.93-1.1,7.61-.81.69.08,1.53-.04,2.05-.55.39-.38.38-.95-.27-1.02h0Z"/>
  </g>
</svg>